<?xml version="1.0" encoding="UTF-8"?>
<!-- Generated by Pixelmator Pro Trial 3.0.2 -->
<svg width="1240" height="1448" viewBox="0 200 1240 1448" xmlns="http://www.w3.org/2000/svg" xmlns:xlink="http://www.w3.org/1999/xlink">
    <defs>
        <path id="path1" d="M 1295 897.5 C 1295 527.745361 992.792236 228 620 228 C 247.207794 228 -55 527.745361 -55 897.5 C -55 1267.254639 247.207794 1567 620 1567 C 992.792236 1567 1295 1267.254639 1295 897.5 Z"/>
    </defs>
    <text id="Forest-School" xml:space="preserve"><textPath xlink:href="#path1" startOffset="2607.672569"><tspan font-family="Optima" font-size="178" fill="#000000" letter-spacing="8.9" xml:space="preserve">Forest School</tspan></textPath></text>
    <defs>
        <path id="path2" d="M 1158 897.5 L 1158 897.5 C 1158 1190.487061 917.129211 1428 620 1428 C 322.870789 1428 82 1190.487061 82 897.5 C 82 604.512939 322.870789 367 620 367 C 917.129211 367 1158 604.512939 1158 897.5 Z"/>
    </defs>
    <text id="Willow-Fen" xml:space="preserve"><textPath xlink:href="#path2" startOffset="2054.387017"><tspan font-family="Optima" font-size="178" fill="#000000" xml:space="preserve">Willow Fen</tspan></textPath></text>
    <path id="Ellipse" fill="none" stroke="#000000" stroke-width="2" stroke-linecap="round" stroke-linejoin="round" visibility="hidden" d="M 1159 669.5 C 1159 376.512939 918.129211 139 621 139 C 323.870789 139 83 376.512939 83 669.5 C 83 962.487061 323.870789 1200 621 1200 C 918.129211 1200 1159 962.487061 1159 669.5 Z"/>
    <path id="Ellipse-copy" fill="none" stroke="#000000" stroke-width="2" stroke-linecap="round" stroke-linejoin="round" visibility="hidden" d="M 1296 669.5 C 1296 299.745361 993.792236 0 621 0 C 248.207794 0 -54 299.745361 -54 669.5 C -54 1039.254639 248.207794 1339 621 1339 C 993.792236 1339 1296 1039.254639 1296 669.5 Z"/>
    <g id="Fire">
        <g id="g1988">
            <path id="path1876" fill="#000000" stroke="none" d="M 653.912231 1246.10083 C 653.912231 1246.10083 709.700073 1230.219727 726.802856 1224.925903 C 743.90564 1219.63208 781.368958 1204.158203 783.812256 1203.750977 C 786.255493 1203.34375 789.92041 1202.936523 791.956421 1204.158203 C 793.992493 1205.379883 796.43573 1207.415771 798.064514 1209.044678 C 799.693481 1210.673584 802.543884 1213.931274 802.951111 1216.374512 C 803.358337 1218.817749 804.579956 1222.482666 803.765503 1224.925903 C 802.951111 1227.369141 802.951111 1230.219727 799.693481 1231.441162 C 796.43573 1232.662964 751.235474 1246.915283 743.091248 1249.765625 C 734.947021 1252.616211 716.964233 1259.04126 711.328857 1263.203613 C 704.457092 1268.279297 685.456604 1278.975342 681.791687 1280.604126 C 678.12677 1282.233032 673.122681 1285.625244 669.815369 1285.963623 C 666.044556 1286.349365 659.001526 1287.472778 660.813904 1284.956299 C 665.006653 1279.134766 665.46582 1270.924683 665.46582 1268.074219 C 665.46582 1265.223755 664.401978 1260.770508 663.049561 1258.695313 C 661.247192 1255.929932 656.291504 1253.576538 655.072571 1252.421875 C 650.934753 1248.502075 653.912231 1246.10083 653.912231 1246.10083 Z"/>
            <path id="path1878" fill="#000000" stroke="none" d="M 659.969971 1257.492065 C 661.473694 1259.636597 661.850708 1260.918457 662.798035 1263.560669 C 663.915405 1266.676758 663.804443 1273.536987 663.201843 1276.413208 C 662.599243 1279.289307 659.41803 1282.140015 656.807251 1283.578125 C 654.195984 1285.016235 650.503418 1284.121704 648.219604 1282.346558 C 645.395264 1280.151001 644.494751 1277.235107 643.944458 1275.473877 C 643.256958 1273.273315 642.59552 1268.204468 644.174316 1264.349487 C 645.787659 1260.410156 648.049194 1257.649902 649.395874 1256.663574 C 650.91687 1255.549561 653.894897 1254.580078 655.333862 1254.846313 C 658.029053 1255.345093 659.969971 1257.492065 659.969971 1257.492065 Z"/>
        </g>
        <g id="g2042">
            <path id="path1878-5" fill="#000000" stroke="none" d="M 801.586853 1279.434082 C 798.886719 1277.736816 797.856323 1276.472412 795.541992 1273.94812 C 792.812683 1270.970825 789.679077 1263.186279 788.987305 1259.656616 C 788.295532 1256.126831 790.499939 1251.391968 792.737183 1248.521973 C 794.974915 1245.651855 799.529663 1244.893066 802.926819 1245.801025 C 807.128418 1246.923828 809.520325 1249.779297 810.972107 1251.500977 C 812.78595 1253.651855 815.932678 1259.048096 815.997437 1264.148071 C 816.063477 1269.359497 814.845032 1273.55249 813.807129 1275.308594 C 812.634949 1277.291748 809.764465 1279.809204 808.028564 1280.197754 C 804.777222 1280.925293 801.586853 1279.434082 801.586853 1279.434082 Z"/>
            <path id="path2037" fill="#000000" stroke="none" d="M 682.397339 1215.77417 C 672.254089 1212.037354 664.246277 1208.834229 661.043213 1208.834229 C 657.839966 1208.834229 651.967651 1208.834229 649.298401 1212.571167 C 646.62915 1216.308105 645.596619 1220.573364 645.027527 1223.181152 C 644.226685 1226.851563 644.048828 1231.515137 645.027527 1237.128418 C 645.759583 1241.32666 647.029541 1243.734741 650.766479 1243.200806 C 654.503479 1242.666992 653.569153 1243.000732 659.441589 1243.000732 C 665.314026 1243.000732 701.61615 1247.805542 709.090027 1248.873291 C 716.564026 1249.940918 751.569885 1259.119507 761.713074 1264.991943 C 771.856384 1270.86438 781.374634 1279.657227 784.897339 1280.904419 C 795.642151 1284.70874 795.507996 1279.169556 795.507996 1279.169556 L 790.636475 1271.562012 C 790.636475 1271.562012 786.49884 1264.35498 786.49884 1260.618042 C 786.49884 1256.880981 786.56665 1248.547363 791.30365 1246.203857 C 797.643433 1243.067627 805.718628 1240.46521 796.508911 1237.528564 C 793.415161 1236.542236 771.017151 1232.32373 762.475464 1231.789795 C 753.933777 1231.256104 711.759338 1220.045044 708.022278 1220.045044 C 704.285339 1220.045044 682.397339 1215.77417 682.397339 1215.77417 Z"/>
        </g>
        <path id="path1841" fill="#000000" stroke="none" d="M 760.935852 1206.608154 C 769.825928 1202.205566 774.381775 1197.841797 778.029053 1187.629639 C 781.676208 1177.41748 783.199707 1166.480469 783.864624 1156.99292 C 784.562439 1147.034302 780.905457 1136.920288 778.029053 1130.73291 C 775.687134 1125.695557 773.15741 1122.764282 770.005066 1118.332275 C 768.261902 1115.88147 764.775269 1119.872559 763.316345 1125.70813 C 761.857422 1131.543701 755.416199 1138.756836 753.227844 1147.510132 C 751.03949 1156.263428 748.121765 1168.664063 748.851135 1175.958496 C 749.580688 1183.25293 752.498413 1186.170776 752.498413 1193.46521 C 752.498413 1200.759766 751.03949 1203.67749 751.03949 1206.595215 C 751.03949 1209.513062 760.935852 1206.608765 760.935852 1206.608765 Z"/>
        <path id="path1839" fill="#000000" stroke="none" d="M 674.921936 1199.453491 C 674.921936 1199.453491 669.794006 1194.343262 666.50116 1182.338013 C 663.975464 1173.129639 664.413208 1160.033569 666.50116 1154.038818 C 669.642334 1145.019897 673.575928 1134.700928 681.122314 1124.796265 C 688.668823 1114.891602 694.800293 1110.175171 700.460083 1099.798828 C 706.119934 1089.422363 707.064514 1081.204346 703.762939 1072.24292 C 700.461365 1063.281494 695.272522 1051.688354 696.687561 1048.386841 C 698.102478 1045.085205 704.277893 1048.453247 707.04425 1050.487305 C 711.620117 1053.851563 722.914124 1061.757568 731.589172 1070.084717 C 741.766663 1079.854004 751.927673 1098.598877 754.700073 1107.345215 C 756.838562 1114.091431 760.361816 1129.450684 760.092102 1141.380005 C 759.932251 1148.453003 760.631531 1160.847656 759.216492 1167.450684 C 757.801636 1174.053955 754.228455 1188.469482 749.983643 1195.544189 C 745.73877 1202.619019 734.485657 1211.174561 731.65564 1211.174561 C 728.825684 1211.174561 723.571106 1210.636963 724.986084 1207.807129 C 726.401001 1204.977173 735.95575 1196.99707 737.248962 1184.696167 C 738.202576 1175.625977 736.194824 1164.702271 728.759277 1157.812012 C 723.244873 1152.702148 718.428772 1142.63916 719.797791 1132.342773 C 721.213501 1121.696777 721.21283 1121.023193 721.21283 1121.023193 C 721.21283 1121.023193 719.326172 1121.966431 714.609741 1128.0979 C 709.893127 1134.22937 704.173523 1143.535889 699.988464 1152.623779 C 695.580383 1162.196045 694.884949 1171.635254 698.573547 1184.224609 C 700.544922 1190.953125 704.233337 1199.317383 704.704956 1202.147217 C 705.176636 1204.977173 702.81842 1209.693848 699.988464 1209.693848 C 697.158508 1209.693848 691.905762 1210.50415 683.952209 1205.920532 C 680.29718 1203.814209 674.921936 1199.453491 674.921936 1199.453491 Z"/>
    </g>
    <g id="Boy">
        <path id="path1837" fill="#000000" stroke="none" d="M 380.698883 1263.203125 C 378.041351 1261.450928 373.957977 1258.548096 371.624725 1256.752686 L 367.382446 1253.488037 L 365.640228 1250.243774 C 362.771912 1244.902344 360.69223 1235.647461 360.399689 1226.922485 C 360.318115 1224.489868 360.159515 1221.257568 360.047211 1219.739746 C 359.565552 1213.229492 360.135437 1204.894531 361.585785 1197.237427 L 363.141205 1189.025879 L 366.232391 1181.073975 C 371.288818 1168.066895 377.575836 1160.035645 388.590393 1152.513184 C 394.688873 1148.348267 396.165741 1146.884155 396.60144 1144.571899 C 396.753784 1143.763428 397.468628 1142.653442 398.190033 1142.10498 L 399.501678 1141.10791 L 397.471527 1140.725342 C 396.35495 1140.515015 395.314697 1140.012939 395.159912 1139.609619 C 395.005219 1139.206177 394.346069 1138.775757 393.695404 1138.653076 C 392.491577 1138.42627 388.531616 1132.727539 386.985504 1128.99707 L 386.133698 1126.941772 L 385.548004 1127.584595 L 384.962372 1128.227295 L 384.459137 1127.249878 C 384.182404 1126.712158 383.559204 1123.782715 383.074341 1120.739746 L 382.192749 1115.207031 L 383.140076 1110.206543 C 383.691772 1107.294678 384.580841 1104.594238 385.26944 1103.741943 C 385.919891 1102.936768 386.710632 1101.447632 387.026703 1100.432861 C 388.441193 1095.891113 395.719116 1089.101074 400.640717 1087.731445 C 406.881409 1085.994629 416.569305 1084.581787 423.559418 1084.389404 L 430.726379 1084.191895 L 435.070099 1085.802612 C 441.987122 1088.367676 446.446259 1093.103516 448.476654 1100.04126 C 448.942627 1101.633789 449.722137 1103.182617 450.208832 1103.483154 C 451.362427 1104.195801 451.066742 1105.666382 449.720306 1105.912598 C 446.752625 1106.455078 448.962982 1112.421509 453.553925 1116.260742 C 457.165741 1119.281128 457.419769 1120.33374 455.255371 1123.311401 C 454.416565 1124.465576 453.817352 1126.021973 453.911774 1126.801514 C 454.005371 1127.575439 453.651642 1128.744385 453.125671 1129.39917 L 452.169189 1130.5896 L 452.579895 1131.873291 C 453.424652 1134.513794 453.75058 1139.739136 453.149841 1141.010254 L 452.527405 1142.327026 L 447.418915 1143.782471 C 439.169006 1146.133179 437.622925 1147.482422 440.024078 1150.23645 C 440.797943 1151.123901 441.727295 1152.842041 442.089355 1154.054199 L 442.747559 1156.258423 L 440.413635 1157.469727 C 437.646851 1158.905884 437.275848 1159.999268 439.114166 1161.299805 C 439.855621 1161.824219 441.692474 1163.832886 443.195984 1165.763428 C 446.147858 1169.553345 459.319183 1182.363525 466.437256 1188.367188 L 470.831543 1192.07373 L 471.947418 1191.557007 C 472.561188 1191.272827 474.59494 1190.560791 476.466888 1189.974609 L 479.870514 1188.908936 L 483.333466 1189.56958 L 486.796387 1190.230225 L 489.966705 1192.506592 C 491.710358 1193.758545 494.517456 1196.709229 496.204742 1199.063721 C 497.891937 1201.418213 500.117065 1203.716553 501.149384 1204.171387 C 502.181702 1204.626465 506.372894 1206.69751 510.463165 1208.77417 C 514.553467 1210.850586 519.029236 1213.043701 520.409241 1213.647461 C 525.765625 1215.990967 526.112 1216.463623 530.049316 1226.804443 C 530.760864 1228.673096 531.317139 1231.209473 531.285522 1232.440552 L 531.228027 1234.679199 L 529.809753 1235.757202 C 529.029785 1236.349854 527.815552 1236.726563 527.111511 1236.593872 L 525.831543 1236.352661 L 526.033752 1237.466797 C 526.144897 1238.079712 526.139648 1239.092041 526.021973 1239.716553 C 525.837463 1240.695801 528.13147 1245.391602 531.369751 1250.66333 C 533.940552 1254.848267 548.53772 1265.164795 556.541443 1268.453125 C 565.54364 1272.151855 568.105408 1274.834595 567.738281 1280.178711 L 567.503723 1283.593384 L 564.368408 1285.716064 L 561.233093 1287.838745 L 558.741577 1287.837646 C 555.446533 1287.836182 547.07782 1285.452271 540.369446 1282.603638 C 537.396606 1281.341431 531.084412 1279.295166 526.342468 1278.056641 L 517.720825 1275.804688 L 516.233154 1274.1698 L 514.745483 1272.535034 L 515.209595 1270.666016 C 515.464844 1269.638062 515.97699 1268.088745 516.347534 1267.223022 L 517.021301 1265.649048 L 508.059296 1258.857666 C 503.130157 1255.122437 498.023621 1251.054688 496.711365 1249.818237 L 494.325531 1247.570313 L 481.297455 1244.638916 C 474.131989 1243.026611 466.401306 1241.124512 464.118195 1240.412109 L 459.96698 1239.116699 L 451.930511 1243.831299 C 427.758392 1258.011719 413.708801 1262.954834 401.199982 1261.680054 L 397.048645 1261.256958 L 395.36792 1263.179321 C 393.304321 1265.539673 390.762451 1266.655029 387.787872 1266.505371 L 385.53064 1266.391724 Z"/>
    </g>
    <path id="Tree" fill="#000000" fill-rule="evenodd" stroke="#000000" stroke-width="2" stroke-linecap="round" stroke-linejoin="round" d="M 350.552734 1296.265625 C 341.848694 1296.235352 324.232635 1294.310669 309 1281 C 302.006226 1274.888672 291.209015 1251.466064 282 1238 C 263.303711 1210.659912 245.07872 1188.000977 236 1180 C 224.621017 1169.971924 203.321091 1148.293457 195 1131 C 186.678909 1113.706543 194 1094 194 1094 C 194 1094 206.709671 1053.296143 216 1010 C 225.290329 966.703918 246.731949 931.09668 256 910 C 260.197571 900.445557 279.237 886.613831 300.957031 872.857422 C 300.961426 872.533142 300.97406 872.242126 301 872 C 301.304596 869.157837 300.583832 845.127441 300 837 C 299.416168 828.872559 297.316376 817.442261 295 813 C 294.870361 812.751404 294.769592 812.473633 294.691406 812.171875 C 288.750122 816.609741 283.552856 821.32373 281 825 C 275.033325 833.592407 252.0802 877.625732 248 893 C 243.9198 908.374268 227 962 227 962 C 227 962 223.982361 942.561646 226 933 C 228.017639 923.438354 235.650574 894.720093 240 886 C 244.349426 877.279907 252.783554 849.659424 257 843 C 261.216431 836.340576 270 817 270 817 C 270 817 252.81015 840.555176 246 850 C 239.18985 859.444824 219.455978 879.125854 211 893 C 202.544022 906.874146 186.522385 920.127075 179 938 C 171.477615 955.872986 161 994 161 994 C 161 994 165.576324 957.250122 168 948 C 170.423676 938.749878 180.362564 912.317261 187 904 C 193.637436 895.682739 209.812073 865.621948 220 855 C 230.187927 844.378052 258.025146 812.88916 265 805 C 269.742889 799.635376 281.122742 789.923218 290 784 C 290.425964 783.715759 290.851044 783.441956 291.273438 783.175781 C 292.991394 784.161255 294.917542 782.059143 296.041016 780.494141 C 297.756683 779.65509 299.170776 779.120972 300 779 C 305.294708 778.227661 332 782 332 782 C 332 782 334.699524 773.624634 331 762 C 327.300476 750.375366 325.150055 734.050049 318 731 C 310.849945 727.949951 309.53363 725.140015 304 729 C 298.46637 732.859985 297.400085 744.426636 297 748 C 296.599915 751.573364 297 779 297 779 C 297 779 296.629913 779.673828 296.041016 780.494141 C 294.608612 781.194641 292.966217 782.10907 291.273438 783.175781 C 290.422913 782.687866 289.62384 781.44397 289 779 C 286.455505 769.031738 285.432892 747.725464 288 737 C 290.567108 726.274536 293.208008 713.929443 304 716 C 314.791992 718.070557 324.524628 721.717285 332 740 C 339.475372 758.282715 342.88797 774.129761 342 779 C 341.11203 783.870239 343.713959 784.411987 354 788 C 355.761932 788.614624 357.399628 789.44928 358.927734 790.421875 C 358.93927 788.727661 358.959015 787.157898 359 786 C 359.191467 780.590942 357.357086 707.219727 358 705 C 358.642914 702.780273 365.645386 676.664063 370 672 C 374.354614 667.335938 382.717224 659.516724 389 659 C 395.282776 658.483276 401 659 401 659 C 401 659 386.306702 647.334961 379 646 C 374.095154 645.103882 363.111023 642.89209 349.191406 642.015625 C 346.419647 656.654541 337.660004 680.801514 337 684 C 336.19342 687.908936 327 699 327 699 C 327 699 336.370972 662.385986 339 655 C 339.927124 652.395386 340.277344 647.373779 340.359375 641.667969 C 336.070007 641.60437 331.59314 641.693726 327 642 C 311.867615 643.009155 296.470581 644.415649 282.761719 649.324219 C 279.885773 651.850586 276.44577 655.812744 273 662 C 264.486176 677.287476 256.594727 705.055908 256 715 C 255.205612 728.282471 255.436859 734.752441 258 745 C 260.420959 754.679077 268 788 268 788 L 257 760 C 257 760 250.422668 746.096924 250 729 C 249.577332 711.903076 253.03746 699.396729 257 689 C 260.962555 678.603271 273 655 273 655 L 282.470703 649.429688 C 274.633179 652.269409 267.35318 656.263184 261 662 C 243.475266 677.824707 235.923203 684.217773 231 692 C 226.076797 699.782227 212.1828 727.686279 207 738 C 201.8172 748.313721 184 789 184 789 C 184 789 185.267456 771.040405 188 763 C 190.732544 754.959595 200.510208 724.941772 210 712 C 219.489792 699.058228 226.274643 678.974365 240 668 C 249.279007 660.580811 263.45462 649.126221 278.412109 641.796875 C 276.78241 632.65686 272.458038 606.382568 275 598 C 277.506775 589.733521 285.297363 575.927124 290 570 C 297.758331 560.221558 302.335083 559.810913 311 560 C 317.572235 560.143433 320.580902 560.22168 328 565 C 335.419098 569.77832 338.926025 578.718506 342 584 C 344.878723 588.946045 348.754883 618.925171 349.822266 631.658203 C 351.233429 631.741211 352.625214 631.853638 354 632 C 369.052155 633.602905 383 638 383 638 C 383 638 381.778625 645.851929 388 622 C 394.221375 598.148071 398.000061 584.501343 401 579 C 408.923676 564.469482 417.944397 560.124023 421 559 C 434.306641 554.105103 437.867126 553.860718 438.738281 553.943359 C 438.111877 557.192993 439 554 439 554 C 439 554 438.941254 553.962646 438.738281 553.943359 C 438.951721 552.83606 439.339081 550.986938 440 548 C 442.600464 536.247192 441.035431 537.88501 447 528 C 452.964569 518.11499 465.623138 513.454712 472 512 C 478.376862 510.545288 487.555206 511.284058 497 517 C 506.444794 522.715942 513.658813 546.22876 516 555 C 518.341187 563.77124 529.635559 605.385498 531 613 C 531.308289 614.720581 531.6651 617.050781 532.042969 619.724609 C 535.020203 616.496338 538.006592 613.257202 541 610 C 558.630615 590.81543 574.043579 580.664307 590.789063 574.048828 C 590.860657 573.687744 590.931152 573.333618 591 573 C 592.244812 566.967407 608.381531 537.25293 616 530 C 623.618469 522.74707 638.79364 511.410156 654 512 C 661.619385 512.295532 667.629456 514.617188 673.113281 518.589844 C 680.073975 510.813965 688.833008 502.130981 690 500 C 691.779053 496.751343 711.981445 480.094971 726 475 C 740.018555 469.905029 749.379211 471.782959 763 473 C 776.620789 474.217041 786.58667 481.346558 796 488 C 805.41333 494.653442 810.928345 503.896851 817 517 C 823.071655 530.103149 825.19989 543.897095 828 554 C 829.246399 558.496948 830.395264 566.249023 831.365234 574.292969 C 831.975891 575.933838 832.526855 577.514648 833 579 C 837.447327 592.961914 851 655 851 655 L 860 707 C 860 707 851.943481 671.658325 849 662 C 846.056519 652.341675 842.431519 632.405762 838 620 C 837.110657 617.510254 836.063599 614.130249 834.921875 610.261719 C 835.310913 615.032227 835.724976 620.861694 836 627 C 836.784973 644.518188 833 658 833 658 C 833 658 834.125854 635.82019 832 624 C 830.418518 615.206665 826.060486 588.106445 822.787109 569.236328 C 821.801025 566.368042 820.862366 563.890015 820 562 C 814.669495 550.317017 810.053528 545.789307 800 539 C 789.570862 531.957031 781.305237 530.036865 774 530 C 770.448608 529.982056 767.348267 530.075439 764.146484 531.048828 C 768.588989 539.140137 773.441589 549.818604 775 554 C 777.149475 559.767212 776.733582 565.412842 776.048828 569.03125 C 779.878662 571.357422 790.614258 584.736572 797 597 C 803.412659 609.315186 811.303223 640.274658 815 659 C 818.696777 677.725342 817 680 817 680 C 817 680 808.328247 657.462646 804 642 C 799.671753 626.537354 792.036499 606.041016 786 598 C 779.963501 589.958984 769.806396 577.979248 759 574 C 752.973511 571.780884 748.571411 570.20459 741.935547 568.705078 C 745.056702 571.509033 748.28479 574.462646 750 576 C 756.814453 582.10791 767.798767 598.750488 770 608 C 772.201172 617.249512 778.274048 635.476929 781 647 C 784.645081 662.408447 786.138794 674.283569 787 682 C 788.667419 696.940308 789 707 789 707 C 789 707 775.521912 660.587646 774.421875 648.988281 C 773.321899 637.388916 768.020203 619.623901 764.246094 610.529297 C 759.758728 599.715576 752.791565 594.688721 749 588 C 746.304443 583.244629 744.016174 580.426758 738 575 C 733.60675 571.037231 716 565 716 565 C 716 565 716.545227 564.864258 717.283203 564.683594 C 711.435425 564.113647 706.079163 564.356689 700.722656 565.085938 C 703.187195 576.127197 704.901733 587.510864 707 596 C 711.321289 613.48291 714.106079 634.844482 716 655 C 717.893921 675.155518 716 689 716 689 C 716 689 707.31604 633.273315 703 614 C 699.87323 600.037354 695.772217 582.441772 691.013672 566.845703 C 679.874512 569.254028 667.542664 572.852905 650 575 C 642.866333 575.873047 636.095398 577.216553 629.636719 578.916016 C 630.246094 578.90979 630.731201 578.963013 631.033203 579.103516 C 633.701172 580.344238 649.211426 587.638794 654.025391 590.857422 C 663.160767 596.965332 676.049072 612.750488 679 622 C 681.950867 631.249512 688.8974 647.777222 690.203125 659.578125 C 691.879089 674.72522 694.612366 693.615479 695 701 C 695.438354 709.349243 694.556274 717.681396 693.685547 723.439453 C 694.730286 725.248047 695.702637 727.019531 696.583984 728.710938 C 700.358887 726.488159 704.506165 724.217957 709 722 C 732.856873 710.225342 750.725098 711.452637 768 709 C 788.565613 706.556274 818.776367 709.474487 835 714 C 840.780884 715.612549 845.905334 717.251099 850.521484 718.933594 C 854.170776 716.372681 869.586609 705.590576 887 694 C 904.185364 682.561279 919.923401 679.095703 934 678 C 966.654053 675.458252 976.648865 692.628906 984 701 C 991.109741 709.096191 1004.690796 747.803223 1013 761 C 1013.860596 767.039246 1016.305298 772.21582 1018.691406 778.75 C 1025.427612 784.009277 1028.256348 788.736877 1032 793 C 1039.109741 801.096191 1051.620117 820.828735 1057 835 C 1062.379883 849.171265 1067.324829 866.896606 1068 880 C 1068.675171 893.103394 1071.304199 907.365845 1075 921 C 1078.695801 934.634155 1075 938 1075 938 C 1075 938 1072.845703 930.470093 1066 912 C 1059.154297 893.529907 1062.140015 887.348633 1058 863 C 1053.859985 838.651367 1035.630859 812.141357 1028 800 C 1026.883301 798.223206 1025.117188 796.220825 1022.865234 794.097656 C 1023.9599 800.48761 1024.515747 808.212524 1024 818 C 1023.411194 830.898071 1028.662109 845.297363 1037 858 C 1046.818604 872.958496 1053 893 1053 893 C 1053 893 1038.745728 874.03125 1032 863 C 1023.142395 848.743408 1013.888062 829.057739 1014 805 C 1014.009277 800.489929 1013.300964 793.186218 1011.927734 785.408203 C 1010.289246 784.268433 1008.57959 783.131958 1006.818359 782.011719 C 1007.337036 784.158813 1007.73999 786.175293 1008 788 C 1010.019409 802.171265 1011.61969 821.425903 1011 835 C 1010.411194 847.898071 1009.48175 857.814209 1010 873 C 1010.857544 887.044678 1008 904 1008 904 C 1008 904 1002.287842 887.591675 1002 877 C 1000.7229 859.567261 1001.888062 846.057739 1002 822 C 1002.019531 812.504028 1001.65271 799.956299 1000 788 C 999.424988 783.839783 998.641785 780.06781 997.722656 776.632813 C 985.820068 770.099915 973.19751 765.102783 965 765 C 936.536072 764.643127 921.377686 766.833496 916.648438 767.677734 C 918.513367 769.76593 920.016357 771.589783 921 773 C 926.071716 780.270996 933.177917 803.118286 942 820 C 950.822083 836.881714 967.983215 866.593018 971 875 C 974.016785 883.406982 992.271973 908.998779 998 917 C 1003.728027 925.001221 1002.666077 934.713867 1006 948 C 1009.333923 961.286072 1008 974 1008 974 C 1008 974 1007.152771 969.485474 1003 963 C 998.62738 956.171204 997.974426 951.681763 996 941 C 994.025574 930.318237 985.188049 916.949463 978 905 C 970.811951 893.050537 963 885 963 885 C 963 885 964.639038 913.224243 966 924 C 967.360962 934.775757 967.424805 950.852783 964 966 C 960.575195 981.147156 962.506897 1000.120178 964 1010 C 965.493103 1019.879822 965 1050 965 1050 C 965 1050 953.651306 1005.882507 953 992 C 952.348694 978.117493 957.072815 947.358521 958 933 C 958.927185 918.641479 952.494019 869.864136 949 860 C 945.505981 850.135864 921.741394 798.690796 906 782 C 890.258606 765.309204 866.818726 745.589844 835 735 C 833.04187 734.348328 831.082642 733.765137 829.123047 733.244141 C 835.029358 737.484253 847.745422 746.588928 850 748 C 862.237061 755.658813 873.912415 768.82959 881 776 C 894.106018 789.259277 900.927551 805.812378 903 817 C 906.795349 837.488403 929.443176 906.131226 937 927 C 943.861389 945.948242 944 966 944 966 C 944 966 935.236084 946.797363 934 938 C 932.763916 929.202759 914 881 914 881 C 914 881 916.354187 911.816284 916 921 C 915.645813 930.183716 919 979 919 979 C 919 979 908.336487 906.705078 904 872 C 902.406738 859.248657 901.302246 834.831421 898 828 C 888.556335 808.463745 888.157898 796.690552 868 778 C 846.080444 757.676025 808 731 808 731 L 818.410156 731 C 810.958191 729.839355 803.504944 729.475403 796.064453 729.669922 C 799.513855 730.047241 803.111267 730.534302 804 731 C 805.819763 731.953491 811.082458 737.904663 815 740 C 818.917542 742.095337 826.792419 752.663208 829 756 C 831.207581 759.336792 840.949646 793.309937 844 806 C 845.090759 810.53772 846.041016 816.163879 846.8125 821.935547 C 854.041016 830.9021 857.882568 840.479675 864 850 C 875.26416 867.529907 882.567566 905.480225 888 927 C 893.432434 948.519775 898 1002 898 1002 C 898 1002 889.236084 959.797302 888 951 C 886.763916 942.202759 877 915 877 915 C 877 915 876.354187 928.816284 876 938 C 875.645813 947.183716 872 973 872 973 L 870 927 C 870 927 872.917908 869.662903 848.53125 838.556641 C 848.835938 842.709473 849.002502 846.36731 849 849 C 848.991333 858.11377 849.735657 875.162476 850 879 C 850.264343 882.837524 849.858459 907.953979 851 916 C 852.141541 924.046021 849 933 849 933 C 849 933 845.228943 904.4375 844 900 C 842.771057 895.5625 844.997498 878.781128 845 873 C 845.002502 867.218872 840.266296 844.83728 840 832 C 839.985046 831.277771 839.949036 830.509827 839.898438 829.710938 C 839.601807 829.470764 839.302429 829.233459 839 829 C 827.281128 819.954163 820.267029 814.856506 814.996094 811.757813 C 815.900208 823.920715 816.629211 835.716614 817 841 C 817.850708 853.121948 816.086182 880.821167 816 886 C 815.913818 891.178833 817 904 817 904 C 817 904 813.278198 897.64502 811 892 C 808.721802 886.35498 809.840515 870.865723 810 867 C 810.159485 863.134277 808.659302 836.849976 809 826 C 809.169922 820.588623 808.715393 814.955505 808.072266 808.384766 C 801.849182 806.064392 796.217041 805.945618 782 802 C 753.930664 794.210083 738.82605 803.47644 738.072266 803.955078 C 738.751465 804.974426 739.398743 805.990723 740 807 C 752.281067 827.615601 767.264404 862.355835 773 884 C 776.72345 898.051025 781 956 781 956 L 778 1010 C 778 1010 776.160034 978.456116 773 956 C 771.878845 948.032715 752.08606 862.693726 739 837 C 731.637329 823.763367 722.655273 811.964478 713.355469 801.908203 C 713.745117 813.302917 712 830 712 830 C 712 830 710.629272 820.947021 710 808 C 709.852417 804.963318 709.470215 801.249817 708.955078 797.298828 C 695.173279 783.322144 681.143066 773.225891 671 768 C 660.803711 762.746704 650.614807 760.203247 637.867188 759.558594 C 638.773621 759.654846 639.516479 759.795776 640 760 C 643.249023 761.372437 659.229126 773.587769 663 779 C 666.770874 784.412231 673.817627 790.092285 680 799 C 687.66571 810.044922 687.731689 831.389648 689 843 C 690.268311 854.610352 689.685974 863.654175 690 872 C 690.625732 888.630127 707 927 707 927 C 707 927 689.237305 895.81604 687 890 C 681.822388 876.540405 682.46936 851.517822 682 840 C 681.519714 828.213989 678.79071 815.895752 672 805 C 667.159912 797.234009 651.025269 780.595093 643 776 C 633.729797 770.692017 622 760 622 760 C 622 760 627.688904 759.470886 632.779297 759.398438 C 626.951294 759.327026 620.581604 759.592529 613.457031 760.130859 C 617.001587 771.600098 620.120178 782.506531 621 787 C 622.798706 796.186401 624.302185 816.921631 624 826 C 623.697815 835.078369 624 859 624 859 C 624 859 623.171204 847.666016 623 846 C 622.828796 844.333984 614.586853 796.188965 611 780 C 609.704712 774.153748 607.596313 767.57019 605.216797 760.839844 C 601.658264 761.177185 597.932861 761.563293 594 762 C 592.2948 762.289368 590.555115 762.593994 588.779297 762.917969 C 588.857178 762.944336 588.932007 762.971252 589 763 C 592.249023 764.372437 598.229126 776.587769 602 782 C 605.770874 787.412231 607.406494 793.769897 611 804 C 614.593506 814.230103 618.731689 841.389648 620 853 C 621.268311 864.610352 622.527893 895.832642 623 904 C 623.960388 920.614136 620 972 620 972 C 620 972 618.775879 945.896179 619 933 C 619.225098 920.047791 613.545898 854.517822 611 843 C 608.454102 831.482178 607.315796 821.854126 605 815 C 602.804871 808.503052 595.046631 787.98877 588 782 C 583.119385 777.852051 576.84967 770.342407 573.453125 766.113281 C 569.533386 767.043213 565.426636 768.107849 561.089844 769.359375 C 563.926208 776.880737 566.518188 783.803955 568 788 C 573.668091 804.049927 577.527893 823.832642 578 832 C 578.960388 848.614136 580 863 580 863 C 580 863 561.795776 803.829102 560 791 C 559.226746 785.476074 557.108948 778.416931 554.457031 771.365234 C 545.905701 774.068237 536.505066 777.487 526.015625 781.921875 C 526.824219 781.785828 527.509399 781.792786 528 782 C 531.249023 783.372437 540.229126 791.587769 544 797 C 547.770874 802.412231 553.406494 810.769897 557 821 C 560.593506 831.230103 565.731689 858.389648 567 870 C 568.268311 881.610352 570.527893 911.832642 571 920 C 571.960388 936.614136 571 962 571 962 C 571 962 562.795776 898.829102 561 886 C 559.204224 873.170898 555.545898 857.517822 553 846 C 550.454102 834.482178 545.557068 824.132935 542 817 C 538.939575 810.863037 535.046631 800.98877 528 795 C 520.953369 789.01123 513 788 513 788 C 513 788 513.894531 787.442139 515.236328 786.669922 C 511.392334 788.427917 507.411621 790.315186 503.287109 792.34375 C 504.674042 803.578003 506.295837 815.553955 507 822 C 508.268311 833.610352 511.663147 860.928955 513 869 C 516.740112 891.5802 523 933 523 933 C 523 933 512.254883 905.322266 507 880 C 502.700562 859.28186 499.808105 836.773071 499 831 C 497.827972 822.626953 496.712952 808.380371 495.373047 796.28125 C 470.247864 807.53656 447.62793 821.10968 433.537109 830.421875 C 436.183136 829.25708 438.735565 828.465881 440 829 C 443.248993 830.372437 452.229126 838.587769 456 844 C 459.770874 849.412231 465.406464 857.769897 469 868 C 472.593536 878.230103 477.731689 905.389648 479 917 C 480.268311 928.610352 482.847015 979.862915 482 988 C 481.152985 996.137085 475 1014 475 1014 C 475 1014 474.795746 945.829102 473 933 C 471.204254 920.170898 466.545898 894.517822 464 883 C 461.454102 871.482178 456.969421 863.568848 455 857 C 453.030579 850.431152 447.046631 842.98877 440 837 C 435.77832 833.412109 431.232971 833.405273 428.265625 833.976563 C 424.42453 836.62262 421.591827 838.712097 420 840 C 412.880859 845.759888 407 864 407 864 C 407 864 395.782257 859.735474 367 875 C 338.217743 890.264526 323.622406 914.778748 304 952 C 284.377594 989.221252 290.048706 1046.019287 303 1130 C 315.951294 1213.980713 356 1296 356 1296 C 356 1296 353.958679 1296.277466 350.552734 1296.265625 Z M 307.892578 868.521484 C 324.954712 857.974365 342.847198 847.742737 356.017578 839.818359 C 354.685638 831.539063 352.682037 821.987122 350 817 C 344.655914 807.062866 328.63681 795.858643 318 799 C 313.827789 800.232178 308.153046 803.178711 302.4375 806.820313 C 303.960571 813.756714 307.736938 835.321106 308 837 C 308.257751 838.645081 307.7388 858.631287 307.892578 868.521484 Z M 383.496094 819.548828 C 399.363586 803.562195 411.228394 782.757813 423 769 C 432.789337 757.558899 436.146484 745.15509 441.878906 731.464844 C 441.609497 730.677673 441.322113 729.862976 441 729 C 434.588196 711.823242 421.158447 683.905884 414 678 C 406.841553 672.094116 408.604584 668.775635 404 667 C 399.395416 665.224365 393.729431 663.912964 388 667 C 382.270569 670.087036 368.915344 687.363525 367 701 C 365.434814 712.143555 365.758514 773.833557 365.929688 796.269531 C 369.637573 800.024719 372.518555 803.755981 375 805 C 378.924316 806.967407 382.207642 812.024414 383.496094 819.548828 Z M 837.507813 812.587891 C 835.424683 801.496338 832.556641 790.057068 831 785 C 828.426636 776.640015 820.934692 759.879272 818 754 C 815.065308 748.120728 808.019104 744.090698 802 740 C 797.312195 736.814087 792.086792 731.958923 789.984375 729.949219 C 786.019165 730.20575 782.058899 730.604858 778.105469 731.105469 C 778.652649 731.646362 785.045471 737.925903 795 746 C 805.410828 754.444214 808.585754 769.519165 811 776 C 811.99884 778.681335 813.051392 788.2005 814.003906 799.292969 C 815.318298 799.837219 816.649353 800.404846 818 801 C 826.199402 804.613159 832.487 808.500732 837.507813 812.587891 Z M 440 798 C 440 798 443.937164 793.873291 463 785 C 469.056122 782.181091 479.637543 778.382935 491.605469 774.398438 C 489.401672 766.526306 486.924408 761.864258 484 756 C 481.578918 751.145081 477.627441 744.862366 471.90625 744.705078 C 471.660095 756.128784 471 781 471 781 C 471 781 467.919952 770.498535 468 766 C 468.029572 764.338623 467.439148 756.055664 466.703125 746.15625 C 465.154175 746.973755 463.583984 747.655945 462.056641 748.224609 C 461.696716 748.826477 461.337402 749.427368 461 750 C 446.934631 773.871216 440 798 440 798 Z M 806.910156 796.527344 C 806.583313 792.977051 806.26593 789.167175 806 785 C 804.824829 766.585938 800.839294 765.068604 787 748 C 775.072021 733.288696 765.88269 733.537659 763.570313 733.886719 L 776.304688 731.339844 C 764.111328 732.979553 751.987732 735.554504 740 738 C 722.506287 741.568665 711.412598 749.019348 705.048828 754.863281 C 706.269409 760.318115 707.498596 766.261902 708.625 771.998047 C 715.568665 778.176086 724.685242 786.866211 732.082031 795.914063 C 732.726318 795.244019 737.686462 790.525452 751 789 C 763.575317 787.559143 781.627197 787.303223 806.910156 796.527344 Z M 763.570313 733.886719 L 763 734 C 763 734 763.199768 733.942627 763.570313 733.886719 Z M 1009.0625 772.525391 C 1007.901428 768.305969 1006.546143 764.3302 1005 761 C 997.049866 743.876709 989.654846 726.40625 985 719 C 981.566101 713.536377 972.726196 700.27002 963 694 C 951.112427 686.336548 941.150513 687.764771 930 689 C 902.722412 692.021729 874.732788 714.733521 863.791016 724.527344 C 866.172852 725.691589 868.40802 726.882385 870.53125 728.107422 C 875.030762 725.556885 889.172241 718.048706 908 713 C 919.317017 709.965332 932.170898 705.416382 946 708 C 978.195679 714.015015 979.648865 728.628906 987 737 C 991.690369 742.341187 998.401062 756.299866 1003.039063 769.490234 C 1005.241394 770.519165 1007.239197 771.531189 1009.0625 772.525391 Z M 501.072266 771.296875 C 518.508179 765.668274 536.996155 760.103027 548.191406 756.707031 C 546.385132 752.955078 544.595703 749.605103 543 747 C 535.674194 735.039917 530.189819 725.397827 524 718 C 523.799744 717.76062 523.610291 717.535034 523.419922 717.308594 C 525.168762 726.651672 526.816528 735.491089 527 738 C 527.413696 743.656738 529 759 529 759 C 529 759 525.611877 759.115479 524 752 C 522.388123 744.884521 518.02356 716.359253 517 712 C 516.96875 711.866821 516.917969 711.628296 516.876953 711.443359 C 514.341736 710.008423 510.807129 708.678833 505 707 C 498.744446 705.191528 492.883728 704.940796 489.955078 704.949219 C 483.869232 714.018433 477.628754 723.474731 472.128906 732.058594 C 477.223724 734.783203 487.793243 741.3974 491 746 C 494.770874 751.412231 500.562103 760.196045 501 770 C 501.018066 770.404419 501.044067 770.842163 501.072266 771.296875 Z M 703.480469 767.523438 C 703.297729 766.863831 703.134888 766.343994 703 766 C 702.63385 765.066284 701.755737 762.656189 700.595703 759.492188 C 698.807678 761.620239 698 763 698 763 C 698 763 700.135376 764.682312 703.480469 767.523438 Z M 993.919922 765.601563 C 991.286865 759.4505 988.370544 754.77179 986 751 C 982.566101 745.536377 974.726196 730.27002 965 724 C 953.112427 716.336548 950.650452 716.120972 941 716 C 912.809814 715.646606 889.95105 730.020081 882.015625 735.714844 C 883.01825 736.463501 884.011353 737.22467 885 738 C 891.732483 743.280029 900.469666 751.19342 907.796875 758.445313 C 917.77478 756.613403 952.778015 751.433777 984 762 C 987.614258 763.223145 990.907043 764.422485 993.919922 765.601563 Z M 555.472656 754.482422 C 556.055054 754.301208 556.570251 754.137573 557 754 C 563.289185 751.986694 581.95575 748.632935 599.734375 745.972656 C 597.161621 739.126343 594.719116 732.585266 593 727 C 588.391418 712.027222 577.348206 698.758057 568 688 C 558.651794 677.241943 550.613342 677.976563 545 677 C 543.489807 676.737305 541.056152 676.995728 538.115234 677.582031 C 538.597656 682.738037 539 687 539 687 C 539 687 536.863647 684.109497 534.501953 678.396484 C 529.294983 679.692749 523.200867 681.645752 517.84375 683.515625 C 518.552124 686.726685 519.089783 689.600342 519 691 C 518.921326 692.226196 519.742981 697.242798 520.878906 703.560547 C 523.711365 705.025391 525.983643 706.54126 527 708 C 530.770874 713.412231 545.406494 726.769897 549 737 C 550.331787 740.791321 552.755859 747.275208 555.472656 754.482422 Z M 671 747 C 671 747 677.905029 740.547913 690.191406 732.646484 C 688.988037 729.867981 687.887573 727.533936 687 726 C 682.48407 718.19519 667.096558 701.506714 652 689 C 650.379456 687.657471 648.591248 686.406006 646.685547 685.240234 C 649.610046 700.281128 650.119202 718.484863 650.435547 725.390625 C 650.730713 731.83252 650.263123 737.930298 649.587891 742.966797 C 660.875671 744.446899 671 747 671 747 Z M 608.53125 744.703125 C 618.72699 743.29071 627.822754 742.244934 633 742 C 636.919373 741.814575 641.319519 742.052856 645.699219 742.507813 C 643.967468 724.575806 640.985535 693.883301 640 685 C 639.874329 683.867554 639.704285 682.679688 639.498047 681.451172 C 624.380981 674.534546 606.105286 671.672607 602 671 C 596.022522 670.020752 579.060547 669.46521 575 670 C 570.939453 670.53479 564 673 564 673 C 564 673 565.117798 674.759521 581 689 C 596.882202 703.240479 597.933777 716.159668 603 729 C 604.460693 732.702087 606.430786 738.351501 608.53125 744.703125 Z M 690.966797 718.917969 C 689.154846 702.540039 685.996277 674.162598 684.957031 665.988281 C 683.482422 654.388916 676.375916 636.623901 671.316406 627.529297 C 665.30072 616.715576 656.645447 606.587158 651.5625 599.898438 C 647.948853 595.143066 646.555481 593.32605 635.958984 589.953125 C 630.346252 588.166504 619.356201 585.060669 614.507813 583.701172 C 607.354675 586.342407 600.59668 589.366455 594.158203 592.585938 C 600.036011 595.197021 608.484802 599.260986 610.521484 602.949219 C 613.472595 608.293335 634.187683 630.898682 637 641 C 639.700012 650.697998 641.785034 665.851929 644.640625 676.669922 C 659.484558 682.970703 667.694397 693.078979 676 700 C 680.700256 703.916748 686.253479 711.36499 690.966797 718.917969 Z M 451.882813 712.142578 C 452.556702 711.102295 453.261383 710.054321 454 709 C 456.802246 704.999756 460.196167 700.558838 464.060547 695.761719 C 463.918945 683.53125 463.416382 664.534668 463 662 C 462.400574 658.351074 454.005402 629.729126 445 620 C 435.994598 610.270874 431.208466 603.94397 429 604 C 426.791534 604.05603 417.474884 604.363281 417 606 C 416.525116 607.636719 411.340363 610.340698 410 614 C 408.659637 617.659302 404.106995 625.100464 404 628 C 403.893005 630.899536 406 646 406 646 C 406 646 408.148193 645.335571 413 651 C 417.851807 656.664429 434.930206 673.25647 436 675 C 437.069794 676.74353 445.082489 688.428467 450 705 C 450.757782 707.553711 451.377441 709.936523 451.882813 712.142578 Z M 514.705078 700.748047 C 513.783264 696.074829 512.753967 690.758545 511.796875 685.703125 C 511.533569 685.801758 511.253235 685.904175 511 686 C 506.15564 687.832397 502.28302 689.5177 499.554688 690.777344 C 498.424133 692.430908 497.266632 694.127319 496.091797 695.857422 C 497.205017 695.071289 498.229645 694.674561 499 695 C 500.792908 695.757324 507.984833 697.98999 514.705078 700.748047 Z M 470.011719 688.53125 C 479.764191 676.906494 491.747864 663.568848 504.791016 649.318359 C 502.335999 638.088501 499.455475 625.51355 498 620 C 495.820923 611.745361 488.453796 586.663086 483 577 C 477.546204 567.336914 470.364227 559.522217 467 559 C 463.635773 558.477783 457.593262 559.475952 455 561 C 452.406738 562.524048 451.976257 564.110474 449 565 C 446.023743 565.889526 439.879852 566.366211 438 566 C 436.120148 565.633789 423.424194 571.347412 421 575 C 418.575806 578.652588 410.823608 590.056396 410 592 C 409.244537 593.782715 406.615417 602.866333 406.167969 604.417969 C 405.733398 604.922119 406 605 406 605 C 406 605 406.127594 604.557983 406.167969 604.417969 C 406.624237 603.888672 407.854065 602.88916 411 601 C 417.14212 597.311646 417.504944 597.046387 423 596 C 428.495056 594.953613 430.33728 594.181152 434 596 C 437.66272 597.818848 438.910675 598.827515 441 601 C 443.089325 603.172485 445.542023 605.593628 450 615 C 454.457977 624.406372 460.50119 631.62854 462 637 C 463.49881 642.37146 468.378052 649.647949 468 654 C 467.76004 656.762451 469.047791 674.848755 470.011719 688.53125 Z M 508.988281 677.130859 C 509.335785 676.984741 509.720978 676.828369 510.117188 676.669922 C 510.062164 676.365234 510.005005 676.051758 509.953125 675.761719 C 509.626892 676.225342 509.328308 676.645752 508.988281 677.130859 Z M 515.884766 675.001953 C 515.922668 675.001831 515.96405 674.998779 516 675 C 517.65332 675.05835 526.519409 673.236572 532.222656 672.025391 C 531.405273 669.365723 530.636475 666.358521 530 663 C 529.214905 658.857178 528.64386 654.605103 528.189453 650.376953 C 523.30072 657.152832 519.403198 662.865723 517 666 C 516.433655 666.738647 515.715759 667.706543 514.882813 668.849609 C 514.948486 669.323975 514.990051 669.718628 515 670 C 515.034546 670.974609 515.395996 672.809814 515.884766 675.001953 Z M 637.917969 673.939453 C 635.17572 662.809692 630.5578 650.328491 627 643 C 621.266785 631.190308 613.018066 620.129028 608.173828 612.824219 C 604.729858 607.630859 603.403564 605.646484 593.304688 601.962891 C 587.329224 599.783325 581.809814 599.891357 580.373047 599.964844 C 576.830566 601.970459 573.378174 603.995361 570 606 C 557.64502 613.331665 544.912842 628.138184 534.746094 641.509766 C 535.327209 646.729126 535.793213 651.320557 536 654 C 536.26947 657.491577 536.888245 664.341431 537.494141 670.910156 C 540.747742 670.349854 556.290283 668.054321 559 667 C 561.896484 665.873047 572.44281 663.52478 591 662 C 607.60144 660.635864 623.395874 667.924072 637.917969 673.939453 Z M 510.048828 643.583984 C 515.27832 637.892822 520.654785 632.068848 526.097656 626.171875 C 525.798401 623.227051 525.4505 620.477295 525 618 C 522.885315 606.371704 515.685059 578.081055 512 565 C 508.314972 551.918945 501.441345 538.569092 498 530 C 494.401062 521.038452 485.011169 521.151245 480 520 C 474.988831 518.848755 466.475555 521.908691 465 524 C 463.524445 526.091309 456.094818 532.93335 455 536 C 453.905182 539.06665 448 554 448 554 C 448 554 450.97113 549.73938 456 550 C 461.02887 550.26062 467.028351 547.716797 473 552 C 478.971649 556.283203 485.478302 562.633057 488 568 C 490.521698 573.366943 495.283691 585.38208 497 590 C 498.716309 594.61792 502.933044 609.393799 503 611 C 503.066956 612.606201 509.733032 638.378784 510 643 C 510.009979 643.172974 510.02713 643.372437 510.048828 643.583984 Z M 284.947266 638.896484 C 289.995331 636.902954 295.063782 635.501099 300 635 C 315.493347 633.427246 328.605621 631.771851 340.292969 631.513672 C 340.135437 624.032104 339.83197 617.032593 340 614 C 340.37738 607.189697 334.752533 581.6427 329 574 C 323.247467 566.3573 310.404144 563.952637 301 569 C 291.595856 574.047363 283.554901 589.690186 280 606 C 276.565704 621.75647 284.409424 637.821289 284.947266 638.896484 Z M 606.335938 568.896484 C 613.878662 566.79126 621.848328 565.020264 630.513672 563.173828 C 634.629395 559.538086 639.406067 555.510376 642 554 C 647.166565 550.991699 661.203247 536.275635 665 529 C 665.380371 528.271118 665.923401 527.425171 666.583984 526.498047 C 660.321594 522.224365 653.240112 519.958008 646 521 C 628.852966 523.467651 623.140015 538.599976 616 549 C 611.295837 555.852051 608.026672 564.071045 606.335938 568.896484 Z M 773.080078 567.507813 C 770.5047 560.233887 765.906006 547.632446 763 542 C 761.903442 539.874634 760.254578 537.046875 758.25 533.859375 C 756.611694 534.924194 754.880371 536.275879 753 538 C 745.676147 544.71521 746.731384 545.536377 744.90625 556.878906 C 754.250671 559.185303 767.084839 564.643433 773.080078 567.507813 Z M 653.654297 558.226563 C 665.867004 555.74646 676.967102 554.588989 686.810547 554.181641 C 686.542114 553.44519 686.271545 552.71582 686 552 C 683.23468 544.710938 678.771912 537.652954 673.257813 532.09375 C 667.138123 539.359497 658.080139 551.973755 653.654297 558.226563 Z M 732.644531 556.261719 C 733.588074 556.272339 734.411255 556.240234 735.109375 556.154297 C 737.103882 552.151245 739.273743 547.189087 739 545 C 738.505005 541.041748 745.042847 533.382324 753 527 C 753.161743 526.870239 753.325317 526.744995 753.490234 526.621094 C 747.447937 517.805298 739.989197 508.205811 734 503 C 723.897156 494.218628 721.368958 497.769043 707 503 C 695.047852 507.351074 686.792358 516.929077 679.988281 524.609375 C 682.94574 527.619629 685.884705 531.104736 689 535 C 692.83313 539.792847 695.656616 546.530884 697.890625 554.015625 C 714.37262 554.193359 726.272705 556.189941 732.644531 556.261719 Z M 818.916016 548.695313 C 815.897156 534.147339 810.602234 511.82666 799 499 C 796.897217 496.675293 791.99231 488.392944 773 482 C 754.00769 475.607056 743.665222 480.195557 732 483 C 720.334778 485.804443 724 489 724 489 C 724 489 736.294922 490.014282 742 496 C 748.769043 503.101929 750.983459 505.805542 753 508 C 754.82605 509.987061 756.691711 516.168945 760.027344 523.259766 C 766.779358 520.973877 773.960693 521.327759 777 521 C 781.153503 520.552124 798.386047 526.968384 808 535 C 811.5896 537.998779 815.363892 542.946289 818.916016 548.695313 Z"/>
    <g id="Border">
        <path id="Path" fill="none" stroke="#000000" stroke-width="2" stroke-linecap="round" stroke-linejoin="round" d="M 722 1355 C 722 1355 724.845093 1347.202881 728 1343 C 735.591553 1332.886719 747.227905 1325.168457 766 1322 C 784.772095 1318.831543 808.388855 1332.917236 819 1335 C 829.518005 1337.064453 833.802002 1338.158691 843 1336 C 852.197998 1333.841309 860.361328 1326.390137 865 1322 C 869.638672 1317.609863 875.532166 1309.467529 878 1302 C 880.467834 1294.532471 880 1291 880 1291"/>
        <path id="path3" fill="#000000" fill-rule="evenodd" stroke="#000000" stroke-width="2" stroke-linecap="round" stroke-linejoin="round" d="M 729 1357 C 729 1357 738.656555 1345.91272 742 1343 C 749.938171 1336.084473 755.670349 1333.134766 759 1332 C 762.329651 1330.865234 767.241211 1329.016602 774 1329 C 783.012878 1328.977905 789.667542 1330.25 794 1332 C 797.767761 1333.521973 800 1336 800 1336 C 800 1336 799.171875 1336.929688 796 1341 C 790.291809 1348.324951 782.427795 1354.975464 777 1358 C 767.034851 1363.552979 761.393066 1362.132446 749 1362 C 736.606934 1361.867554 729 1357 729 1357 Z"/>
        <path id="path4" fill="none" stroke="#000000" stroke-width="2" stroke-linecap="round" stroke-linejoin="round" d="M 800 1337 C 800 1337 811.414978 1341.033936 823 1342 C 834.585022 1342.966064 841.383484 1342.012939 848 1341 C 854.616516 1339.987061 866.148865 1332.580566 873 1326 C 878.668701 1320.555176 882.681091 1315.473877 885 1307 C 888.02356 1295.951172 888 1292 888 1292 L 888 1292"/>
        <path id="path5" fill="none" stroke="#000000" stroke-width="2" stroke-linecap="round" stroke-linejoin="round" d="M 804 1328 C 804 1328 809.383545 1317.269897 812 1313 C 816.26593 1306.03833 817.291809 1302.954834 826 1295 C 834.708191 1287.045166 844.013733 1281.9104 857 1281 C 869.986267 1280.0896 882.418823 1281.334839 886 1282 C 889.581177 1282.665161 894 1283 894 1283"/>
        <path id="path6" fill="#000000" fill-rule="evenodd" stroke="#000000" stroke-width="2" stroke-linecap="round" stroke-linejoin="round" d="M 811 1332 C 811 1332 812.85321 1326.197266 819 1317 C 825.253845 1307.642578 835.925964 1300.499756 839 1299 C 842.074036 1297.500244 853.733765 1292.029419 858 1291 C 862.896179 1289.818604 870.078674 1288.574951 876 1289 C 877.072021 1289.076904 881 1290 881 1290 C 881 1290 879.884216 1296.901611 879 1300 C 878.197144 1302.813354 875.217773 1307.624512 871 1315 C 868.936462 1318.608398 862.469849 1325.697266 854 1331 C 846.59436 1335.636475 834.70874 1338.159424 828 1337 C 821.29126 1335.840576 811 1332 811 1332 Z"/>
        <path id="path7" fill="none" stroke="#000000" stroke-width="2" stroke-linecap="round" stroke-linejoin="round" d="M 887 1282 C 887 1282 891.3974 1273.450928 895 1268 C 898.6026 1262.549072 900.880371 1255.421509 907 1248 C 913.119629 1240.578491 929.481201 1229.584229 939 1225 C 948.518799 1220.415771 962.5177 1214.006592 966 1213 C 969.4823 1211.993408 977 1209 977 1209"/>
        <path id="path8" fill="none" stroke="#000000" stroke-width="2" stroke-linecap="round" stroke-linejoin="round" d="M 973 1217 C 973 1217 987.965759 1211.442505 992 1209 C 996.034241 1206.557495 1011.909241 1194.498169 1015 1190 C 1018.090759 1185.501831 1028.365723 1170.656006 1032 1162 C 1035.634277 1153.343994 1040.094482 1146.60791 1041 1139 C 1041.905518 1131.39209 1041 1125 1041 1125"/>
        <path id="path9" fill="none" stroke="#000000" stroke-width="2" stroke-linecap="round" stroke-linejoin="round" d="M 972 1210 C 972 1210 971.239746 1205.106445 972 1193 C 972.746643 1181.110352 977.218506 1166.955322 980 1161 C 986.633423 1146.797363 998.863342 1139.029663 1003 1136 C 1008.110596 1132.25708 1019.860352 1124.644531 1023 1123 C 1025.926147 1121.467285 1035 1116 1035 1116"/>
        <path id="path10" fill="none" stroke="#000000" stroke-width="2" stroke-linecap="round" stroke-linejoin="round" d="M 1031 1131 C 1031 1131 1046.349365 1120.896484 1053 1113 C 1059.650635 1105.103516 1063.939087 1097.404907 1068 1085 C 1072.060913 1072.595093 1075.381348 1058.243652 1076 1048 C 1076.618652 1037.756348 1076 1024 1076 1024"/>
        <path id="path11" fill="none" stroke="#000000" stroke-width="2" stroke-linecap="round" stroke-linejoin="round" d="M 1070 1029 C 1070 1029 1081.385254 1018.515381 1084 1016 C 1086.614746 1013.484619 1098.941406 997.799622 1101 990 C 1103.058594 982.200378 1104.658936 975.88092 1104 968 C 1103.341064 960.11908 1099 940 1099 940"/>
        <path id="path12" fill="none" stroke="#000000" stroke-width="2" stroke-linecap="round" stroke-linejoin="round" d="M 1067 1020 C 1067 1020 1064.990967 1015.821106 1064 1010 C 1063.009033 1004.178894 1060.335449 996.99939 1061 991 C 1061.664551 985.00061 1062.917358 975.738831 1067 971 C 1071.082642 966.261169 1079.373169 952.676392 1083 949 C 1086.626831 945.323608 1095 932 1095 932"/>
        <path id="path13" fill="#000000" fill-rule="evenodd" stroke="#000000" stroke-width="2" stroke-linecap="round" stroke-linejoin="round" d="M 1073 1017 C 1073 1017 1083.577393 1006.963135 1087 1001 C 1090.422607 995.036865 1093.450684 986.538452 1095 981 C 1096.549316 975.461548 1097.450684 964.687012 1097 962 C 1096.549316 959.312988 1094 949 1094 949 C 1094 949 1091.260742 953.304871 1089 957 C 1086.19519 961.584412 1081.797852 967.167236 1077 974 C 1074.655273 977.339172 1070.571777 983.089966 1070 990 C 1069.445923 996.696411 1070.408203 1004.220825 1071 1007 C 1071.683594 1010.210083 1073 1017 1073 1017 Z"/>
        <path id="path14" fill="#000000" fill-rule="evenodd" stroke="#000000" stroke-width="2" stroke-linecap="round" stroke-linejoin="round" d="M 1035 1116 C 1035 1116 1048.140869 1103.029053 1053 1093 C 1057.859131 1082.970947 1063.909912 1071.258057 1065 1065 C 1066.090088 1058.741943 1068.954224 1045.21875 1069 1040 C 1069.045776 1034.78125 1069 1030 1069 1030 C 1069 1030 1062.594482 1032.945068 1059 1036 C 1055.405518 1039.054932 1050.036011 1042.447754 1046 1048 C 1041.963989 1053.552246 1039.079224 1058.413086 1037 1063 C 1034.920776 1067.586914 1033.87146 1071.467041 1033 1076 C 1032.12854 1080.532959 1031.87146 1087.231323 1032 1090 C 1032.12854 1092.768677 1031.237671 1096.440063 1032 1102 C 1032.762329 1107.559937 1035 1116 1035 1116 Z"/>
        <path id="path15" fill="none" stroke="#000000" stroke-width="2" stroke-linecap="round" stroke-linejoin="round" d="M 1029 1118 C 1029 1118 1024.852417 1101.859985 1025 1089 C 1025.147949 1076.107666 1027.776123 1063.074219 1032 1052 C 1036.223877 1040.925781 1051.894897 1029.50293 1058 1026 C 1064.105103 1022.497131 1069 1020 1069 1020 L 1074 1017"/>
        <path id="path16" fill="#000000" fill-rule="evenodd" stroke="#000000" stroke-width="2" stroke-linecap="round" stroke-linejoin="round" d="M 979 1208 C 979 1208 987.625244 1204.858154 995.766357 1199.115356 C 1003.907532 1193.372681 1013.443787 1178.923828 1019.259216 1168.512817 C 1022.426575 1162.842529 1028.462036 1152.391113 1030.026733 1145.807617 C 1032.025513 1137.398071 1031.005615 1131 1031.005615 1131 C 1031.005615 1131 1020.459106 1136.857178 1017.301453 1138.897461 C 1014.143799 1140.937622 1003.707947 1147.864624 998.702942 1152.718018 C 993.697998 1157.571289 990.277466 1163.289307 987.935425 1167.525635 C 985.593323 1171.761963 982.403137 1176.650146 981.083313 1183.320557 C 979.76355 1189.990967 979.330139 1191.622559 979 1196 C 978.669861 1200.377441 979 1208 979 1208 Z"/>
        <path id="path17" fill="none" stroke="#000000" stroke-width="2" stroke-linecap="round" stroke-linejoin="round" d="M 1093 949 C 1093 949 1108.715698 919.336304 1111 906 C 1113.284302 892.663696 1111.018555 876.105347 1109 867 C 1106.981445 857.894653 1104.431152 844.80127 1101 840 C 1097.568848 835.19873 1094 831 1094 831 L 1094 831 L 1094 831"/>
        <path id="path18" fill="none" stroke="#000000" stroke-width="2" stroke-linecap="round" stroke-linejoin="round" d="M 1089 938 C 1089 938 1075.568359 916.663696 1071 904 C 1066.431641 891.336304 1067.182129 872.022583 1069 863 C 1070.62146 854.952026 1073.561035 848.848389 1078 838 C 1082.438965 827.151611 1086 818 1086 818"/>
        <path id="path19" fill="#000000" fill-rule="evenodd" stroke="#000000" stroke-width="2" stroke-linecap="round" stroke-linejoin="round" d="M 1095 932 C 1095 932 1098.614502 920.509277 1102 902 C 1105.385498 883.490723 1103.87146 874.840942 1100 863 C 1096.12854 851.159058 1090 839 1090 839 C 1090 839 1088.040894 841.499756 1086 846 C 1083.959106 850.500244 1078.036377 862.978149 1077 874 C 1075.963623 885.021851 1077.192993 896.590576 1080 905 C 1082.807007 913.409424 1095 932 1095 932 Z"/>
        <path id="path20" fill="none" stroke="#000000" stroke-width="2" stroke-linecap="round" stroke-linejoin="round" d="M 1089.255249 839 C 1089.255249 839 1095.824341 822.758118 1097.026123 809.277771 C 1098.227905 795.797424 1099.357422 786.706848 1092.169312 770.638916 C 1084.981323 754.570923 1079.65625 747.040955 1074.684937 741.90741 C 1069.713623 736.773865 1064 732 1064 732"/>
        <path id="path21" fill="none" stroke="#000000" stroke-width="2" stroke-linecap="round" stroke-linejoin="round" d="M 1083 824 C 1077.128784 818.817261 1068.642456 808.769653 1064 803 C 1059.357544 797.230347 1053.643188 786.735596 1052 780 C 1050.356812 773.264404 1049.919189 763.762329 1051 755 C 1052.080811 746.237671 1057 728 1057 728"/>
        <path id="path22" fill="#000000" fill-rule="evenodd" stroke="#000000" stroke-width="2" stroke-linecap="round" stroke-linejoin="round" d="M 1062 741 C 1062 741 1061.420654 744.18103 1061 753 C 1060.579346 761.81897 1059.492798 766.283325 1061 773 C 1062.507202 779.716675 1065.48291 787.743042 1068 791 C 1070.51709 794.256958 1074.87207 803.891479 1079 809 C 1083.12793 814.108521 1086 819 1086 819 C 1086 819 1087.674927 808.751953 1088 801 C 1088.325073 793.248047 1088.726807 779.987305 1084 771 C 1079.273193 762.012695 1072.001099 749.542725 1069 746 C 1065.998901 742.457275 1062 741 1062 741 Z"/>
        <path id="path23" fill="none" stroke="#000000" stroke-width="2" stroke-linecap="round" stroke-linejoin="round" d="M 1062 740 C 1062 740 1068.500244 724.36438 1068 712 C 1067.499756 699.63562 1059.967041 679.635132 1055 673 C 1050.032959 666.364868 1039.463501 658.139526 1036 656 C 1032.536499 653.860474 1026 651 1026 651"/>
        <path id="path24" fill="none" stroke="#000000" stroke-width="2" stroke-linecap="round" stroke-linejoin="round" d="M 1054 734 C 1054 734 1039.213379 723.685913 1031 714 C 1022.786621 704.314087 1016.792297 692.091431 1017 682 C 1017.207703 671.908569 1019 649 1019 649"/>
        <path id="path25" fill="#000000" fill-rule="evenodd" stroke="#000000" stroke-width="2" stroke-linecap="round" stroke-linejoin="round" d="M 1057 726 C 1057 726 1059.447021 714.280762 1057 706 C 1054.552979 697.719238 1051.044678 684.536133 1047 677 C 1044.224487 671.828613 1038.954224 665.508545 1035 663 C 1031.504517 660.782471 1026 660 1026 660 C 1026 660 1024.843872 671.274536 1025 674 C 1025.289185 679.047119 1025.238525 683.475098 1030 694 C 1034.761475 704.524902 1039.453979 707.943237 1045 715 C 1049.078003 720.188965 1057 726 1057 726 Z"/>
        <path id="path26" fill="none" stroke="#000000" stroke-width="2" stroke-linecap="round" stroke-linejoin="round" d="M 881 1290 C 881 1290 894.055969 1291.020752 901 1291 C 907.944031 1290.979248 920.880127 1289.20105 928 1286 C 936.834473 1282.028076 949.070862 1273.474365 953 1269 C 959.593018 1261.492188 965.938965 1252.713623 969 1247 C 972.500061 1240.466919 978.027832 1228.332031 979 1225 C 979.972168 1221.667969 980 1215 980 1215"/>
        <path id="path27" fill="#000000" fill-rule="evenodd" stroke="#000000" stroke-width="2" stroke-linecap="round" stroke-linejoin="round" d="M 893 1283 C 893 1283 894.267578 1280.529053 899 1274 C 903.547241 1267.726563 913.262207 1256.490967 917 1252 C 920.988831 1247.207397 933.508911 1236.472534 940 1233 C 946.491089 1229.527466 954.122437 1225.168335 959 1223 C 963.877563 1220.831665 973 1217 973 1217 C 973 1217 972.479736 1224.888794 969 1232 C 965.520264 1239.111206 962.890869 1243.491699 959 1249 C 955.57074 1253.854858 950.733459 1261.815063 942 1267 C 933.266541 1272.184937 925.739929 1275.315674 921 1277 C 916.260071 1278.684326 903.899719 1282.293945 902 1282 C 900.100281 1281.706055 893 1283 893 1283 Z"/>
        <path id="path28" fill="none" stroke="#000000" stroke-width="2" stroke-linecap="round" stroke-linejoin="round" d="M 715 1360 C 715 1360 719.138916 1361.288574 726 1364 C 732.861084 1366.711426 745.53949 1372.025635 755 1372 C 764.46051 1371.974365 776.650391 1367.571777 782 1364 C 787.349609 1360.428223 797.145813 1349.001465 799 1346 C 800.854187 1342.998535 804 1338 804 1338"/>
        <path id="path29" fill="none" stroke="#000000" stroke-width="2" stroke-linecap="round" stroke-linejoin="round" d="M 1026 658 C 1026 658 1026.27356 642.920776 1026 638 C 1025.442383 627.969849 1020.901794 611.4021 1006 600 C 991.497131 588.903076 985.279602 585.557617 981 584 C 976.720398 582.442383 971 581 971 581"/>
        <path id="path30" fill="none" stroke="#000000" stroke-width="2" stroke-linecap="round" stroke-linejoin="round" d="M 1018 654 C 1018 654 1010.395996 652.169922 1003 649 C 995.604004 645.830078 989.606934 643.799072 985 639 C 980.393066 634.200928 972.569702 625.781372 970 617 C 968.723267 612.637085 963.652283 598.005981 963 593 C 962.423523 588.575928 962 577 962 577"/>
        <path id="path31" fill="#000000" fill-rule="evenodd" stroke="#000000" stroke-width="2" stroke-linecap="round" stroke-linejoin="round" d="M 1019 648 C 1019 648 1019.903625 636.139771 1016 628 C 1012.096375 619.860229 1003.94696 607.957886 998 603 C 991.901245 597.915527 980.562439 593.324829 977 592 C 973.437561 590.675171 972 591 972 591 C 972 591 971.91156 592.284668 974 600 C 976.587219 609.558105 983.198425 622.371948 985 625 C 986.801575 627.628052 991.218567 633.179565 999 640 C 1006.781433 646.820435 1019 648 1019 648 Z"/>
        <path id="path32" fill="none" stroke="#000000" stroke-width="2" stroke-linecap="round" stroke-linejoin="round" d="M 972 589 C 972 589 971.939453 570.933716 968 561 C 964.060547 551.066284 963.903625 547.064575 954 538 C 944.096375 528.935425 922 530 922 530"/>
        <path id="path33" fill="none" stroke="#000000" stroke-width="2" stroke-linecap="round" stroke-linejoin="round" d="M 963 583 C 963 583 950.633118 581.949097 938 577 C 925.366882 572.050903 917.693298 562.745605 914 556 C 910.306702 549.254395 910 534 910 534"/>
        <path id="path34" fill="none" stroke="#000000" stroke-width="2" stroke-linecap="round" stroke-linejoin="round" d="M 910 541 C 910 541 905.780334 542.90564 893 537 C 880.219666 531.09436 876.745117 529.073242 872 523 C 867.254883 516.926758 863 501 863 501"/>
        <path id="path35" fill="none" stroke="#000000" stroke-width="2" stroke-linecap="round" stroke-linejoin="round" d="M 875 501 C 875 501 871.281006 492.069946 866 485 C 860.718994 477.930054 854.08136 469.128418 844 464 C 833.91864 458.871582 819.317993 457.760254 814 457 C 808.682007 456.239746 797 456 797 456"/>
        <path id="path36" fill="none" stroke="#000000" stroke-width="2" stroke-linecap="round" stroke-linejoin="round" d="M 794 464 C 794 464 790.040527 464.489258 778 465 C 765.959473 465.510742 758.195618 466.834595 750 465 C 741.804382 463.165405 731.768372 457.635498 727 453 C 722.231628 448.364502 714 439 714 439"/>
        <path id="path37" fill="none" stroke="#000000" stroke-width="2" stroke-linecap="round" stroke-linejoin="round" d="M 728 439 C 728 439 723.331116 431.612793 717 427 C 710.668884 422.387207 705.262329 416.560669 693 415 C 680.737671 413.439331 674.24292 411.760132 664 414 C 653.75708 416.239868 637 423 637 423"/>
        <path id="path38" fill="none" stroke="#000000" stroke-width="2" stroke-linecap="round" stroke-linejoin="round" d="M 635 434 C 635 434 628.950745 439.715942 621 443 C 613.049255 446.284058 594.829041 449.940552 589 450 C 583.170959 450.059448 569.329346 449.086182 562 447 C 554.670654 444.913818 537 434 537 434"/>
        <path id="path39" fill="#000000" fill-rule="evenodd" stroke="#000000" stroke-width="2" stroke-linecap="round" stroke-linejoin="round" d="M 629 429 C 629 429 619.123596 421.548218 607 417 C 598.142212 413.677002 584.266235 413.163696 579 414 C 573.733765 414.836304 565.517456 419.108398 562 422 C 558.482544 424.891602 548 432 548 432 C 548 432 559.631592 437.209229 566 439 C 572.368408 440.790771 581.83252 441.834717 589 442 C 596.16748 442.165283 608.066406 440.20752 616 436 C 623.933594 431.79248 629 429 629 429 Z"/>
        <path id="path40" fill="none" stroke="#000000" stroke-width="2" stroke-linecap="round" stroke-linejoin="round" d="M 641 429 C 641 429 636.180664 422.075684 627 417 C 617.819336 411.924316 611.911377 406.760254 602 405 C 592.088623 403.239746 577.821167 404.184204 570 408 C 562.178833 411.815796 549.480591 418.836914 546 422 C 542.519409 425.163086 540 428 540 428"/>
        <path id="path41" fill="none" stroke="#000000" stroke-width="2" stroke-linecap="round" stroke-linejoin="round" d="M 544 439 C 544 439 538.908936 445.048218 530 454 C 524.346985 459.680176 518.48175 465.302002 513 468 C 507.51825 470.697998 494.643402 471.337891 484 470 C 473.356598 468.662109 450 457 450 457"/>
        <path id="path42" fill="none" stroke="#000000" stroke-width="2" stroke-linecap="round" stroke-linejoin="round" d="M 455 460 C 455 460 453.062744 463.903076 444 473 C 434.937256 482.096924 424.609894 490.700562 415 493 C 405.390106 495.299438 374 492 374 492"/>
        <path id="path43" fill="none" stroke="#000000" stroke-width="2" stroke-linecap="round" stroke-linejoin="round" d="M 317 536 C 317 536 303.183624 534.91626 289 541 C 274.816376 547.08374 260.542297 559.664307 259 567 C 257.457703 574.335693 252 598 252 598"/>
        <path id="path44" fill="none" stroke="#000000" stroke-width="2" stroke-linecap="round" stroke-linejoin="round" d="M 259 598 C 259 598 243.088089 604.015625 236 608 C 228.911911 611.984375 212.009125 618.704712 205 626 C 197.990875 633.295288 191.381027 642.040894 190 648 C 188.618973 653.959106 186 672 186 672"/>
        <path id="path45" fill="none" stroke="#000000" stroke-width="2" stroke-linecap="round" stroke-linejoin="round" d="M 259 606 C 259 606 261.134888 611.633301 259 622 C 256.865112 632.366699 257.240387 642.181274 252 649 C 246.759613 655.818726 233.282257 663.68042 227 666 C 220.717743 668.31958 190 681 190 681"/>
        <path id="path46" fill="none" stroke="#000000" stroke-width="2" stroke-linecap="round" stroke-linejoin="round" d="M 190 672 C 190 672 182.407394 673.812866 175 681 C 167.592606 688.187134 161.564026 698.315308 158 708 C 154.435974 717.684692 152.386124 727.102539 153 734 C 153.613876 740.897461 159 754 159 754"/>
        <path id="path47" fill="none" stroke="#000000" stroke-width="2" stroke-linecap="round" stroke-linejoin="round" d="M 168 760 C 168 760 176.401001 773.959106 178 782 C 179.598999 790.040894 179.496658 808.686646 178 813 C 176.503342 817.313354 174.49675 828.227051 168 833 C 161.50325 837.772949 155.110138 842.062378 151 845 C 146.889862 847.937622 140 854 140 854"/>
        <path id="path48" fill="none" stroke="#000000" stroke-width="2" stroke-linecap="round" stroke-linejoin="round" d="M 166 752 C 166 752 157.149887 758.376831 153 762 C 148.850113 765.623169 142.279633 773.961914 139 779 C 135.720367 784.038086 131.943787 794.804321 132 803 C 132.056213 811.195679 132.837799 826.46814 134 831 C 135.162201 835.53186 140 844 140 844"/>
        <path id="path49" fill="none" stroke="#000000" stroke-width="2" stroke-linecap="round" stroke-linejoin="round" d="M 146 840 C 146 840 132.359161 852.984619 128 861 C 123.640839 869.015381 118.960388 874.070068 118 879 C 117.039612 883.929932 115.130363 907.054199 117 915 C 118.869637 922.945801 132 944 132 944"/>
        <path id="path50" fill="none" stroke="#000000" stroke-width="2" stroke-linecap="round" stroke-linejoin="round" d="M 146 849 C 146 849 152.713455 853.46814 157 863 C 161.286545 872.53186 165.195801 884.313477 165 894 C 164.804199 903.686523 159.595657 917.754883 157 923 C 154.404343 928.245117 140 955 140 955"/>
        <path id="path51" fill="none" stroke="#000000" stroke-width="2" stroke-linecap="round" stroke-linejoin="round" d="M 137 937 C 137 937 130.353455 950.967041 127 959 C 123.47226 967.4505 121.734909 976.301147 121 983 C 120.247429 989.859802 121.803177 998.716125 123 1001 C 124.196823 1003.283875 131.376633 1015.530945 136 1020 C 140.623367 1024.468994 147 1030 147 1030"/>
        <path id="path52" fill="none" stroke="#000000" stroke-width="2" stroke-linecap="round" stroke-linejoin="round" d="M 158 1023 C 158 1023 165.259125 1028.103027 171 1033 C 176.740875 1037.896973 185.330658 1043.698486 188 1051 C 190.669342 1058.301514 194.576813 1073.947144 194 1078 C 193.423187 1082.052856 193.676941 1090.176025 193 1094 C 192.323059 1097.823975 191 1105 191 1105"/>
        <path id="path53" fill="none" stroke="#000000" stroke-width="2" stroke-linecap="round" stroke-linejoin="round" d="M 150 1023 C 150 1023 147.733276 1029.359131 147 1035 C 146.266724 1040.640869 144.426208 1052.439941 145 1056 C 145.573792 1059.560059 148.101273 1073.248779 151 1077 C 153.898727 1080.751221 161.202499 1089.687988 163 1091 C 164.797501 1092.312012 170.418991 1097.614502 174 1099 C 177.581009 1100.385498 184 1103 184 1103"/>
        <path id="path54" fill="none" stroke="#000000" stroke-width="2" stroke-linecap="round" stroke-linejoin="round" d="M 184.888412 1095 C 184.888412 1095 183.203857 1109.061035 182.962479 1116 C 182.7211 1122.938965 181.872253 1133.326172 181.999496 1138 C 182.126755 1142.673828 186.614426 1154.604736 188.740311 1157 C 190.866196 1159.395264 199.44841 1169.149536 203.184891 1171 C 206.921371 1172.850464 218.620255 1178.277344 221.481369 1179 C 224.342468 1179.722656 234 1180 234 1180"/>
        <path id="path55" fill="none" stroke="#000000" stroke-width="2" stroke-linecap="round" stroke-linejoin="round" d="M 310 549 C 310 549 311.280518 561.209839 310 567 C 308.719482 572.790161 309.849945 582.967285 304 589 C 298.150055 595.032715 290.003143 600.802002 282 602 C 273.996857 603.197998 254 607 254 607"/>
        <path id="path56" fill="#000000" fill-rule="evenodd" stroke="#000000" stroke-width="2" stroke-linecap="round" stroke-linejoin="round" d="M 254 607 C 254 607 253.058289 618.501099 252 625 C 249.929596 637.714233 242.659637 644.978149 239 648 C 234.44162 651.763916 229.606735 654.173096 223 658 C 216.764297 661.611938 206.212601 665.317993 205 666 C 203.776474 666.68811 192 671 192 671 C 192 671 194.000473 658.366089 196 654 C 197.999527 649.633911 203.107452 640.659058 208 636 C 212.892548 631.340942 220.668457 623.144165 226 620 C 231.331543 616.855835 254 607 254 607 Z"/>
        <path id="path57" fill="none" stroke="#000000" stroke-width="2" stroke-linecap="round" stroke-linejoin="round" d="M 459 452 C 459 452 451.066406 447.872681 444 446 C 436.933594 444.127319 430.315857 442.396729 421 444 C 411.684143 445.603271 402.694519 448.408691 396 454 C 389.305481 459.591309 378 481 378 481"/>
        <path id="path58" fill="none" stroke="#000000" stroke-width="2" stroke-linecap="round" stroke-linejoin="round" d="M 385 484 C 385 484 378.217712 481.620239 370 481 C 361.782288 480.379761 345.838074 485.043457 340 489 C 334.161926 492.956543 323.56311 500.253174 320 507 C 316.43689 513.746826 312.848389 517.494995 312 522 C 311.151611 526.505005 310 536 310 536"/>
        <path id="path59" fill="#000000" fill-rule="evenodd" stroke="#000000" stroke-width="2" stroke-linecap="round" stroke-linejoin="round" d="M 190 681 C 190 681 192.526138 691.750122 194 702 C 194.807007 707.612305 195.778 721.116943 193 726 C 190.222 730.883057 179.176239 743.222046 176 745 C 172.823761 746.777954 166 752 166 752 C 166 752 163.306213 742.766968 163 730 C 162.845642 723.564331 163.099136 713.961792 168 706 C 172.900864 698.038208 177.338974 692.917603 180 690 C 182.661026 687.082397 190 681 190 681 Z"/>
        <path id="path60" fill="none" stroke="#000000" stroke-width="2" stroke-linecap="round" stroke-linejoin="round" d="M 197 677 C 197 677 201.14119 690.299072 203 696 C 204.936127 701.93811 206.53566 713.503052 206 721 C 205.46434 728.496948 201.220169 735.707397 198 739 C 194.313217 742.769775 181.954086 751.500122 176 755 C 170.045914 758.499878 161 766 161 766"/>
        <path id="path61" fill="#000000" fill-rule="evenodd" stroke="#000000" stroke-width="2" stroke-linecap="round" stroke-linejoin="round" d="M 145 841 C 145 841 155.300308 832.852905 159 827 C 162.699692 821.147095 168.685623 810.555054 169 802 C 169.314377 793.444946 167.469193 782.018311 166 778 C 164.530807 773.981689 162 765 162 765 C 162 765 153.42305 771.282837 150 777 C 146.57695 782.717163 144.884262 787.265137 143 794 C 141.115738 800.734863 140.359467 815.19397 141 821 C 141.640533 826.80603 145 841 145 841 Z"/>
        <path id="path62" fill="#000000" fill-rule="evenodd" stroke="#000000" stroke-width="2" stroke-linecap="round" stroke-linejoin="round" d="M 140 853 C 140 853 145.847137 863.234131 151 873 C 153.377029 877.505005 156.896408 887.586182 157 893 C 157.103592 898.413818 155.295761 906.714966 152 912 C 148.704239 917.285034 137 938 137 938 C 137 938 130.471756 928.990112 129 924 C 127.528244 919.009888 124.303833 905.748169 125 898 C 125.696167 890.251831 126.418373 882.226563 130 874 C 133.581619 865.773438 140 853 140 853 Z"/>
        <path id="path63" fill="#000000" fill-rule="evenodd" stroke="#000000" stroke-width="2" stroke-linecap="round" stroke-linejoin="round" d="M 139 956 C 139 956 143.265274 961.894836 148 969 C 152.844437 976.269775 153.61026 987.267151 154 994 C 154.291977 999.043884 150 1021 150 1021 C 150 1021 143.474121 1017.936584 140 1013 C 136.525879 1008.063416 132.397781 1003.030396 131 998 C 129.602219 992.969604 128.603104 989.442871 129 984 C 129.392578 978.616394 131.50589 970.55719 134 965 C 136.49411 959.44281 139 956 139 956 Z"/>
        <path id="path64" fill="#000000" fill-rule="evenodd" stroke="#000000" stroke-width="2" stroke-linecap="round" stroke-linejoin="round" d="M 155 1032 C 155 1032 165.702881 1038.537598 171 1045 C 176.297119 1051.462402 180.681458 1058.135742 182 1064 C 183.318542 1069.864258 185.135086 1077.863525 185 1082 C 184.864914 1086.136475 184 1096 184 1096 C 184 1096 173.961502 1090.187256 169 1085 C 164.038498 1079.812744 158.464493 1075.383545 156 1068 C 153.535507 1060.616455 151.347351 1050.232178 152 1044 C 152.652649 1037.767822 155 1032 155 1032 Z"/>
        <path id="path65" fill="#000000" fill-rule="evenodd" stroke="#000000" stroke-width="2" stroke-linecap="round" stroke-linejoin="round" d="M 191 1107 C 191 1107 190.918488 1114.918579 191 1119 C 191.081512 1123.081421 190.298325 1138.626221 192 1143 C 193.701675 1147.373779 194.994476 1153.51416 201 1158 C 207.005524 1162.48584 213.123428 1167.106201 220 1170 C 226.876572 1172.893799 236 1174 236 1174 C 236 1174 235.281128 1168.375488 234 1163 C 232.718872 1157.624512 228.919754 1145.212769 224 1138 C 219.080246 1130.787231 211.149155 1119.756836 204 1115 C 196.850845 1110.243164 191 1107 191 1107 Z"/>
        <path id="path66" fill="none" stroke="#000000" stroke-width="2" stroke-linecap="round" stroke-linejoin="round" d="M 142 949 C 142 949 152.57515 958.271667 155 963 C 158.320557 969.474915 160.919052 986.653015 161 991 C 161.080948 995.346985 160.035217 1010.322388 158 1018 C 155.964783 1025.677612 154 1032 154 1032"/>
        <path id="path67" fill="none" stroke="#000000" stroke-width="2" stroke-linecap="round" stroke-linejoin="round" d="M 236 1174 C 236 1174 232.088501 1188.983398 233 1194 C 233.911499 1199.016602 236.768433 1211.0979 241 1216 C 245.231567 1220.9021 253.999863 1227.411499 260 1230 C 266.000153 1232.588501 288 1232 288 1232"/>
        <path id="path68" fill="none" stroke="#000000" stroke-width="2" stroke-linecap="round" stroke-linejoin="round" d="M 288 1251 C 288 1251 287.336578 1258.961914 292 1266 C 296.663422 1273.038086 304.363312 1282.899536 309 1287 C 313.636688 1291.100464 322.680939 1297.447632 328 1300 C 333.319061 1302.552368 351 1305 351 1305"/>
        <path id="path69" fill="none" stroke="#000000" stroke-width="2" stroke-linecap="round" stroke-linejoin="round" d="M 346 1293 C 346 1293 351.388214 1308.486206 358 1316 C 364.611786 1323.513794 376.348663 1334.099609 385 1338 C 393.651337 1341.900391 412.128998 1350.337646 422 1351 C 431.871002 1351.662354 439 1351 439 1351"/>
        <path id="path70" fill="none" stroke="#000000" stroke-width="2" stroke-linecap="round" stroke-linejoin="round" d="M 359 1301 C 359 1301 351.000824 1289.522705 350 1287 C 348.999176 1284.477295 347 1280 347 1280"/>
        <path id="path71" fill="none" stroke="#000000" stroke-width="2" stroke-linecap="round" stroke-linejoin="round" d="M 446 1347 C 446 1347 439.352783 1338.977783 435 1332 C 430.647217 1325.022217 425.644012 1317.400879 419 1310 C 412.355988 1302.599121 409.685364 1300.089355 403 1296 C 397.323761 1292.527832 383.455933 1291.089844 378 1291 C 367.614319 1290.828857 357 1296 357 1296"/>
        <path id="path72" fill="none" stroke="#000000" stroke-width="2" stroke-linecap="round" stroke-linejoin="round" d="M 432 1342 C 432 1342 438.326202 1353.339111 443 1357 C 447.673798 1360.660889 456.791382 1369.933594 469 1374 C 481.208618 1378.066406 500.02359 1379.268311 507 1378 C 513.97644 1376.731689 528 1373 528 1373"/>
        <path id="path73" fill="none" stroke="#000000" stroke-width="2" stroke-linecap="round" stroke-linejoin="round" d="M 442 1342 C 442 1342 450.916473 1338.835327 460 1338 C 469.083527 1337.164673 484.063507 1335.402344 491 1338 C 497.936493 1340.597656 510.692261 1347.01001 515 1352 C 519.388489 1357.083618 536 1369 536 1369"/>
        <path id="path74" fill="none" stroke="#000000" stroke-width="2" stroke-linecap="round" stroke-linejoin="round" d="M 517 1366 C 517 1366 527.675537 1371.842407 535 1376 C 542.324463 1380.157593 552.725403 1388.657227 564 1391 C 575.274597 1393.342773 591.210938 1391.310303 600 1389 C 608.789063 1386.689697 629 1377 629 1377"/>
        <path id="path75" fill="none" stroke="#000000" stroke-width="2" stroke-linecap="round" stroke-linejoin="round" d="M 528 1363 C 528 1363 542.618591 1352.166626 553 1351 C 563.381409 1349.833374 579.841064 1346.268799 589 1349 C 598.158936 1351.731201 615.518311 1355.398804 621 1361 C 626.481689 1366.601196 635 1370 635 1370"/>
        <path id="path76" fill="none" stroke="#000000" stroke-width="2" stroke-linecap="round" stroke-linejoin="round" d="M 381 494 C 381 494 381.285767 495.747314 378 503 C 374.714233 510.252686 369.238464 522.210083 364 527 C 358.761536 531.789917 353.67041 539.546265 347 542 C 340.32959 544.453735 327.7565 546.751465 324 547 C 320.2435 547.248535 305 549 305 549"/>
        <path id="path77" fill="#000000" fill-rule="evenodd" stroke="#000000" stroke-width="2" stroke-linecap="round" stroke-linejoin="round" d="M 373 491 C 373 491 367.743042 489.046021 358 493 C 348.256958 496.953979 336.25296 502.531738 333 506 C 329.74704 509.468262 326.154144 514.975952 323 521 C 319.845856 527.024048 317 536 317 536 C 317 536 317.619171 537.208862 326 537 C 334.380829 536.791138 345.521851 539.014526 351 533 C 356.478149 526.985474 365.547302 514.804077 368 510 C 370.452698 505.195923 373 491 373 491 Z"/>
        <path id="path78" fill="#000000" fill-rule="evenodd" stroke="#000000" stroke-width="2" stroke-linecap="round" stroke-linejoin="round" d="M 304 549 C 304 549 303.889862 556.374756 303 562 C 302.110138 567.625244 301.158417 575.574219 297 581 C 292.841583 586.425781 287.022705 591.843384 281 594 C 274.977295 596.156616 259 598 259 598 C 259 598 262.504608 581.786987 266 575 C 269.495392 568.213013 277.674774 556.460938 284 554 C 290.325226 551.539063 304 549 304 549 Z"/>
        <path id="path79" fill="#000000" fill-rule="evenodd" stroke="#000000" stroke-width="2" stroke-linecap="round" stroke-linejoin="round" d="M 538 435 C 538 435 534.049072 440.732544 528 446 C 521.950928 451.267456 516.642944 456.859863 513 459 C 509.357056 461.140137 505.463257 462.644165 499 463 C 492.536743 463.355835 484.824158 460.851563 478 458 C 471.175842 455.148438 459 451 459 451 C 459 451 462.202545 447.123169 469 443 C 475.797455 438.876831 482.002411 433.815918 491 432 C 499.997589 430.184082 508.862213 428.691895 521 430 C 533.137756 431.308105 538 435 538 435 Z"/>
        <path id="path80" fill="#000000" fill-rule="evenodd" stroke="#000000" stroke-width="2" stroke-linecap="round" stroke-linejoin="round" d="M 449 457 C 449 457 447.404846 461.650391 443 466 C 438.595154 470.349609 434.146973 473.407715 428 477 C 421.853027 480.592285 417.20166 485.959595 408 487 C 398.79834 488.040405 384 483 384 483 C 384 483 388.356659 473.743042 395 468 C 401.643341 462.256958 412.742889 453.772827 420 454 C 427.257111 454.227173 436.18866 454.091675 441 455 C 445.81134 455.908325 449 457 449 457 Z"/>
        <path id="path81" fill="none" stroke="#000000" stroke-width="2" stroke-linecap="round" stroke-linejoin="round" d="M 546 432 C 546 432 538.300049 427.261597 530 425 C 521.699951 422.738403 509.496826 420.320801 499 421 C 488.503174 421.679199 473.49292 430.992432 469 435 C 464.50708 439.007568 455 449 455 449"/>
        <path id="path82" fill="#000000" fill-rule="evenodd" stroke="#000000" stroke-width="2" stroke-linecap="round" stroke-linejoin="round" d="M 962 576 C 962 576 962.025879 565.795654 957 558 C 951.974121 550.204346 946.539856 544.062622 939 541 C 931.460144 537.937378 922 536 922 536 C 922 536 921.164185 543.245728 923 548 C 924.835815 552.754272 928.08844 559.736206 937 566 C 945.91156 572.263794 962 576 962 576 Z"/>
        <path id="path83" fill="#000000" fill-rule="evenodd" stroke="#000000" stroke-width="2" stroke-linecap="round" stroke-linejoin="round" d="M 910 532 C 910 532 911.383423 523.542969 908 517 C 904.616577 510.457031 902.112244 506.790527 896 503 C 889.887756 499.209473 875 501 875 501 C 875 501 876.884277 507.947876 880 513 C 883.115723 518.052124 887.365417 524.643066 893 528 C 898.634583 531.356934 910 532 910 532 Z"/>
        <path id="path84" fill="#000000" fill-rule="evenodd" stroke="#000000" stroke-width="2" stroke-linecap="round" stroke-linejoin="round" d="M 863 499 C 863 499 858.591431 485.905273 850 479 C 841.408569 472.094727 830.429993 467.011597 823 466 C 815.570007 464.988403 802 465 802 465 C 802 465 812.994019 478.530273 816 483 C 818.768188 487.116211 821.769043 493.154541 830 498 C 838.230957 502.845459 846.360107 502.137573 851 502 C 855.639893 501.862427 863 499 863 499 Z"/>
        <path id="path85" fill="#000000" fill-rule="evenodd" stroke="#000000" stroke-width="2" stroke-linecap="round" stroke-linejoin="round" d="M 791 459 C 791 459 779.313904 447.062012 773 443 C 766.825989 439.027954 757.524231 437.547363 750 437 C 742.475769 436.452637 728 439 728 439 C 728 439 729.770447 443.598755 735 448 C 740.229553 452.401245 746.593933 456.810913 753 458 C 759.406067 459.189087 771.904541 459.754395 775 460 C 778.01825 460.239502 791 459 791 459 Z"/>
        <path id="path86" fill="#000000" fill-rule="evenodd" stroke="#000000" stroke-width="2" stroke-linecap="round" stroke-linejoin="round" d="M 713 439 C 713 439 708.501465 430.677979 698 427 C 687.498535 423.322021 677.608093 419.428833 667 421 C 656.391907 422.571167 642 428 642 428 C 642 428 645.343628 432.063477 651 437 C 656.656372 441.936523 662.469604 447.39624 667 449 C 671.530396 450.60376 683.58075 449.910278 690 448 C 696.41925 446.089722 713 439 713 439 Z"/>
        <path id="path87" fill="none" stroke="#000000" stroke-width="2" stroke-linecap="round" stroke-linejoin="round" d="M 923 536 C 923 536 922.460938 524.999146 916 513 C 909.539063 501.000854 901.939941 495.124146 895 494 C 888.060059 492.875854 872 494 872 494"/>
        <path id="path88" fill="none" stroke="#000000" stroke-width="2" stroke-linecap="round" stroke-linejoin="round" d="M 865 505 C 865 505 859.295227 507.797119 853 508 C 846.704773 508.202881 837.150513 508.630859 830 506 C 822.246582 503.147339 819.444824 501.340698 815 496 C 810.23114 490.269897 803.230164 479.407959 802 477 C 800.769836 474.592041 791 459 791 459"/>
        <path id="path89" fill="none" stroke="#000000" stroke-width="2" stroke-linecap="round" stroke-linejoin="round" d="M 802 465 C 802 465 789.780762 449.037109 785 444 C 780.238342 438.983032 775.759033 434.70874 765 433 C 754.240967 431.29126 740.315186 431.485718 734 433 C 727.684814 434.514282 725 435 725 435"/>
        <path id="path90" fill="none" stroke="#000000" stroke-width="2" stroke-linecap="round" stroke-linejoin="round" d="M 718 443 C 718 443 710.603271 447.941406 701 451 C 691.396729 454.058594 682.47168 457.571045 673 458 C 663.52832 458.428955 652.322998 449.908325 647 445 C 641.677002 440.091675 629 428 629 428"/>
        <path id="path91" fill="none" stroke="#000000" stroke-width="2" stroke-linecap="round" stroke-linejoin="round" d="M 629 1366 C 629 1366 640.915527 1351.969971 651 1348 C 661.084473 1344.030029 666.64093 1342.543213 674 1342 C 679.965637 1341.55957 706.026611 1347.012451 710 1351 C 715.319275 1356.338257 729 1359 729 1359"/>
        <path id="path92" fill="none" stroke="#000000" stroke-width="2" stroke-linecap="round" stroke-linejoin="round" d="M 623 1373 C 623 1373 633.936157 1379.368652 638 1381 C 642.063843 1382.631348 651.782532 1386.498291 660 1386 C 668.217468 1385.501709 686.291687 1385.6875 693 1383 C 699.708313 1380.3125 711.707031 1373.40564 716 1370 C 720.292969 1366.59436 724 1363 724 1363"/>
        <path id="path93" fill="#000000" fill-rule="evenodd" stroke="#000000" stroke-width="2" stroke-linecap="round" stroke-linejoin="round" d="M 635 1370 C 635 1370 643.252563 1362.202393 649 1358 C 653.688721 1354.571777 662.116394 1351.488892 669 1351 C 675.883606 1350.511108 684.861145 1350.677734 693 1353 C 701.138855 1355.322266 715 1360 715 1360 C 715 1360 711.276245 1364.879395 708 1366 C 704.723755 1367.120605 682.203247 1376.84375 674 1377 C 665.796753 1377.15625 653.41217 1376.093262 648 1375 C 642.58783 1373.906738 635 1370 635 1370 Z"/>
        <path id="path94" fill="#000000" fill-rule="evenodd" stroke="#000000" stroke-width="2" stroke-linecap="round" stroke-linejoin="round" d="M 346 1293 C 346 1293 339.688202 1284.905273 338 1278 C 336.311798 1271.094727 296.729614 1249.325806 296 1249 C 295.445892 1248.752563 292.226105 1252.745972 294 1258 C 296.25766 1264.687012 303.89978 1273.179688 306 1275 C 309.411377 1277.956787 326.490723 1290.810791 331 1293 C 335.509277 1295.189209 346 1293 346 1293 Z"/>
        <path id="path95" fill="#000000" fill-rule="evenodd" stroke="#000000" stroke-width="2" stroke-linecap="round" stroke-linejoin="round" d="M 243 1170 C 243 1170 237.639328 1187.639893 239 1193 C 240.360672 1198.360107 243.700974 1204.604858 246 1208 C 248.299026 1211.395142 251.181717 1215.289063 258 1220 C 264.818268 1224.710938 277 1227 277 1227 C 277 1227 278.792114 1214.405762 276 1207 C 273.207886 1199.594238 267.275787 1186.68335 262 1185 C 256.724213 1183.31665 243 1170 243 1170 Z"/>
        <path id="path96" fill="#000000" fill-rule="evenodd" stroke="#000000" stroke-width="2" stroke-linecap="round" stroke-linejoin="round" d="M 359 1301 C 359 1301 364.763916 1298.401733 370 1299 C 375.236084 1299.598267 387.249329 1299.080322 394 1302 C 400.750671 1304.919678 407.640411 1307.8479 411 1313 C 414.359589 1318.1521 422.153564 1328.746094 425 1332 C 427.846436 1335.253906 432 1342 432 1342 C 432 1342 425.27298 1343.027466 420 1342 C 414.72702 1340.972534 403.796844 1338.607544 395 1333 C 386.203156 1327.392456 376.44342 1321.035889 372 1316 C 367.55658 1310.964111 359 1301 359 1301 Z"/>
        <path id="path97" fill="#000000" fill-rule="evenodd" stroke="#000000" stroke-width="2" stroke-linecap="round" stroke-linejoin="round" d="M 447 1347 C 447 1347 453.290802 1344.922974 458 1344 C 462.718201 1343.075195 475.513702 1341.956299 478 1342 C 485.503082 1342.131836 496.430389 1349.301025 500 1352 C 503.569611 1354.698975 518 1366 518 1366 C 518 1366 516.000488 1367.721558 510 1369 C 502.960144 1370.499878 498.500031 1370.549561 494 1370 C 487.065582 1369.153076 468.175232 1363.536865 462 1361 C 453.13443 1357.358032 447 1347 447 1347 Z"/>
        <path id="path98" fill="#000000" fill-rule="evenodd" stroke="#000000" stroke-width="2" stroke-linecap="round" stroke-linejoin="round" d="M 536 1369 C 536 1369 546.462646 1364.944092 552 1363 C 557.509277 1361.065796 570.626465 1357.290649 578 1357 C 582.866699 1356.808105 589.56781 1358.107178 593 1359 C 601.012573 1361.084351 612.974854 1366.788452 615 1368 C 617.025146 1369.211548 623 1372 623 1372 C 623 1372 614.364014 1376.88269 608 1379 C 601.635986 1381.11731 591.0625 1382.938721 586 1383 C 580.9375 1383.061279 566.981506 1382.674561 564 1382 C 561.018494 1381.325439 550.019836 1376.445923 546 1375 C 541.980164 1373.554077 536 1369 536 1369 Z"/>
    </g>
</svg>
